<svg data-v-423bf9ae="" xmlns="http://www.w3.org/2000/svg" viewBox="0 0 1990 90" class="iconLeftSlogan"><!----><!----><!----><g data-v-423bf9ae="" id="6d072590-a36f-4248-a1a2-c4c51760ab0b" fill="#ffffff" transform="matrix(11.966309605391467,0,0,11.966309605391467,110.00152228711408,-64.00779028218902)"><path d="M2.98 9.08L2.98 9.08L2.98 9.08Q2.86 9.23 2.76 9.34L2.76 9.34L2.76 9.34Q2.65 9.45 2.54 9.53L2.54 9.53L2.54 9.53Q2.42 9.60 2.28 9.66L2.28 9.66L2.28 9.66Q2.14 9.71 1.96 9.73L1.96 9.73L1.96 9.73Q1.87 9.74 1.78 9.74L1.78 9.74L1.78 9.74Q1.68 9.75 1.57 9.73L1.57 9.73L1.57 9.73Q1.42 9.72 1.28 9.72L1.28 9.72L1.28 9.72Q1.13 9.72 0.98 9.69L0.98 9.69L0.98 9.69Q0.66 9.61 0.44 9.46L0.44 9.46L0.44 9.46Q0.22 9.31 0.10 9.07L0.10 9.07L0.10 9.07Q-0.05 8.74 0.27 8.73L0.27 8.73L0.27 8.73Q0.33 8.73 0.40 8.81L0.40 8.81L0.40 8.81Q0.47 8.89 0.51 8.93L0.51 8.93L0.51 8.93Q0.66 9.07 0.68 9.08L0.68 9.08L0.68 9.08L0.68 9.09L0.68 9.09Q1.02 9.32 1.57 9.32L1.57 9.32L1.58 9.32L1.59 9.32L1.59 9.32Q1.82 9.32 2.18 9.23L2.18 9.23L2.18 9.23Q2.54 9.14 2.65 8.87L2.65 8.87L2.65 8.87Q2.71 8.70 2.65 8.51L2.65 8.51L2.65 8.50L2.65 8.50Q2.48 8.14 1.99 8.02L1.99 8.02L1.15 7.80L1.15 7.80Q0.97 7.76 0.72 7.63L0.72 7.63L0.72 7.63Q0.59 7.56 0.49 7.51L0.49 7.51L0.49 7.51Q0.40 7.45 0.33 7.40L0.33 7.40L0.33 7.40Q0.05 7.19 0.01 6.99L0.01 6.99L0.01 6.99Q0 6.95 0 6.89L0 6.89L0 6.89Q0 6.83 0 6.74L0 6.74L0 6.74Q0 6.64 0.01 6.55L0.01 6.55L0.01 6.55Q0.03 6.46 0.04 6.36L0.04 6.36L0.04 6.36Q0.08 6.04 0.31 5.80L0.31 5.80L0.31 5.80Q0.41 5.69 0.56 5.62L0.56 5.62L0.56 5.62Q0.70 5.55 0.84 5.49L0.84 5.49L0.84 5.49Q1.03 5.40 1.24 5.40L1.24 5.40L1.24 5.40Q1.45 5.39 1.65 5.40L1.65 5.40L1.65 5.40Q2.32 5.42 2.70 5.87L2.70 5.87L2.70 5.87Q2.87 6.08 2.83 6.22L2.83 6.22L2.78 6.26L2.78 6.26Q2.67 6.32 2.52 6.19L2.52 6.19L2.52 6.19Q2.48 6.16 2.45 6.13L2.45 6.13L2.45 6.13Q2.41 6.09 2.38 6.06L2.38 6.06L2.38 6.06Q2.34 6.02 2.29 5.98L2.29 5.98L2.29 5.98Q2.24 5.95 2.17 5.91L2.17 5.91L2.15 5.90L2.13 5.90L2.13 5.90Q1.88 5.82 1.62 5.81L1.62 5.81L1.62 5.81Q1.35 5.80 1.07 5.86L1.07 5.86L1.07 5.86Q0.74 5.93 0.56 6.14L0.56 6.14L0.56 6.14Q0.38 6.34 0.38 6.67L0.38 6.67L0.38 6.69L0.39 6.70L0.39 6.70Q0.42 7.12 1.05 7.30L1.05 7.30L1.24 7.36L1.75 7.53L1.75 7.53Q1.87 7.57 1.98 7.62L1.98 7.62L1.98 7.62Q2.10 7.67 2.23 7.72L2.23 7.72L2.23 7.72Q2.42 7.81 2.58 7.90L2.58 7.90L2.58 7.90Q2.75 7.98 2.88 8.07L2.88 8.07L2.88 8.07Q2.98 8.13 3.03 8.22L3.03 8.22L3.03 8.22Q3.08 8.31 3.10 8.41L3.10 8.41L3.10 8.41Q3.12 8.51 3.11 8.62L3.11 8.62L3.11 8.62Q3.11 8.73 3.09 8.82L3.09 8.82L3.09 8.82Q3.08 8.89 3.05 8.96L3.05 8.96L3.05 8.96Q3.01 9.03 2.98 9.08ZM4.82 9.29L4.82 9.29L4.82 9.29Q4.81 8.87 4.82 8.46L4.82 8.46L4.82 8.46Q4.82 8.04 4.82 7.62L4.82 7.62L4.82 7.38L4.82 7.38Q4.82 7.20 4.81 7.01L4.81 7.01L4.81 7.01Q4.80 6.82 4.81 6.64L4.81 6.64L4.81 6.64Q4.82 6.43 4.82 6.23L4.82 6.23L4.82 6.23Q4.82 6.03 4.83 5.82L4.83 5.82L4.83 5.82Q4.83 5.58 4.94 5.48L4.94 5.48L4.94 5.48Q5.03 5.41 5.26 5.41L5.26 5.41L5.26 5.41Q5.37 5.41 5.46 5.40L5.46 5.40L5.46 5.40Q5.54 5.40 5.61 5.40L5.61 5.40L5.61 5.40Q5.87 5.39 6.14 5.40L6.14 5.40L6.14 5.40Q6.41 5.41 6.67 5.41L6.67 5.41L6.67 5.41Q6.82 5.40 6.96 5.40L6.96 5.40L6.96 5.40Q7.10 5.39 7.24 5.41L7.24 5.41L7.59 5.43L7.59 5.43Q7.65 5.43 7.69 5.43L7.69 5.43L7.69 5.43Q7.74 5.43 7.77 5.45L7.77 5.45L7.77 5.45Q7.92 5.52 7.91 5.66L7.91 5.66L7.91 5.66Q7.90 5.72 7.86 5.76L7.86 5.76L7.86 5.76Q7.82 5.80 7.77 5.82L7.77 5.82L7.77 5.82Q7.72 5.84 7.66 5.84L7.66 5.84L7.66 5.84Q7.61 5.85 7.57 5.85L7.57 5.85L7.57 5.85Q7.15 5.85 6.74 5.83L6.74 5.83L6.74 5.83Q6.70 5.82 6.64 5.82L6.64 5.82L6.64 5.82Q6.58 5.82 6.50 5.82L6.50 5.82L6.10 5.82L6.10 5.82Q5.95 5.82 5.82 5.83L5.82 5.83L5.82 5.83Q5.70 5.83 5.62 5.83L5.62 5.83L5.62 5.83Q5.50 5.84 5.43 5.86L5.43 5.86L5.43 5.86Q5.35 5.89 5.32 5.94L5.32 5.94L5.32 5.94Q5.26 6.02 5.28 6.15L5.28 6.15L5.28 6.15Q5.28 6.20 5.28 6.24L5.28 6.24L5.28 6.24Q5.28 6.28 5.27 6.32L5.27 6.32L5.27 6.32Q5.26 6.40 5.25 6.49L5.25 6.49L5.25 6.49Q5.24 6.58 5.25 6.69L5.25 6.69L5.25 6.69Q5.25 6.88 5.40 7.01L5.40 7.01L5.40 7.01Q5.52 7.12 5.84 7.10L5.84 7.10L5.84 7.10Q5.99 7.10 6.13 7.08L6.13 7.08L6.13 7.08Q6.27 7.06 6.41 7.07L6.41 7.07L6.41 7.07Q6.47 7.07 6.57 7.07L6.57 7.07L6.57 7.07Q6.67 7.08 6.81 7.07L6.81 7.07L6.81 7.07Q7.08 7.06 7.18 7.16L7.18 7.16L7.18 7.16Q7.21 7.21 7.21 7.32L7.21 7.32L7.21 7.32Q7.18 7.44 7.01 7.47L7.01 7.47L7.01 7.47Q6.86 7.50 6.76 7.50L6.76 7.50L6.76 7.50Q6.64 7.51 6.52 7.50L6.52 7.50L6.52 7.50Q6.40 7.50 6.28 7.51L6.28 7.51L6.28 7.51Q6.13 7.52 5.97 7.51L5.97 7.51L5.97 7.51Q5.81 7.51 5.64 7.49L5.64 7.49L5.64 7.49Q5.62 7.49 5.59 7.49L5.59 7.49L5.59 7.49Q5.56 7.49 5.54 7.49L5.54 7.49L5.54 7.49L5.54 7.49Q5.46 7.47 5.39 7.52L5.39 7.52L5.39 7.52Q5.26 7.59 5.25 7.78L5.25 7.78L5.25 7.78Q5.24 7.96 5.25 8.09L5.25 8.09L5.25 8.09Q5.26 8.16 5.26 8.22L5.26 8.22L5.26 8.22Q5.26 8.29 5.26 8.33L5.26 8.33L5.26 8.33Q5.24 8.44 5.23 8.53L5.23 8.53L5.23 8.53Q5.22 8.63 5.21 8.74L5.21 8.74L5.21 8.74Q5.19 9.00 5.28 9.13L5.28 9.13L5.28 9.13Q5.39 9.28 5.68 9.28L5.68 9.28L5.68 9.28Q5.91 9.28 6.14 9.27L6.14 9.27L6.14 9.27Q6.37 9.26 6.60 9.25L6.60 9.25L6.60 9.25Q6.82 9.24 7.04 9.26L7.04 9.26L7.04 9.26Q7.26 9.28 7.48 9.28L7.48 9.28L7.48 9.28Q7.56 9.28 7.70 9.28L7.70 9.28L7.70 9.28Q7.83 9.28 7.91 9.32L7.91 9.32L7.91 9.32Q7.98 9.36 7.98 9.44L7.98 9.44L7.98 9.44Q8.06 9.69 7.77 9.70L7.77 9.70L7.77 9.70Q7.32 9.72 6.89 9.71L6.89 9.71L6.89 9.71Q6.45 9.71 6.02 9.71L6.02 9.71L6.02 9.71Q5.99 9.71 5.96 9.72L5.96 9.72L5.96 9.72Q5.94 9.72 5.92 9.72L5.92 9.72L5.92 9.72Q5.76 9.72 5.65 9.72L5.65 9.72L5.65 9.72Q5.54 9.72 5.46 9.71L5.46 9.71L5.46 9.71Q5.41 9.71 5.35 9.71L5.35 9.71L5.35 9.71Q5.28 9.71 5.20 9.70L5.20 9.70L5.20 9.70Q5.13 9.69 5.09 9.69L5.09 9.69L5.09 9.69Q5.04 9.68 5.02 9.67L5.02 9.67L5.02 9.67Q4.82 9.61 4.82 9.29ZM10.29 6.24L10.29 6.24L10.29 6.24Q10.34 6.36 10.37 6.48L10.37 6.48L10.37 6.48Q10.40 6.60 10.44 6.73L10.44 6.73L10.44 6.73Q10.47 6.85 10.50 6.97L10.50 6.97L10.50 6.97Q10.54 7.10 10.60 7.21L10.60 7.21L10.60 7.21Q10.73 7.42 10.82 7.64L10.82 7.64L10.82 7.64Q10.91 7.85 11.01 8.07L11.01 8.07L11.16 8.37L11.16 8.37Q11.27 8.55 11.42 8.57L11.42 8.57L11.42 8.57Q11.63 8.59 11.79 8.24L11.79 8.24L11.79 8.24Q11.87 8.05 11.95 7.84L11.95 7.84L11.95 7.84Q12.02 7.63 12.09 7.42L12.09 7.42L12.09 7.42Q12.10 7.40 12.13 7.34L12.13 7.34L12.13 7.34Q12.16 7.27 12.23 7.16L12.23 7.16L12.23 7.16Q12.27 7.08 12.31 7.02L12.31 7.02L12.31 7.02Q12.35 6.95 12.38 6.90L12.38 6.90L12.38 6.90Q12.54 6.58 12.69 6.25L12.69 6.25L12.69 6.25Q12.85 5.91 12.97 5.56L12.97 5.56L12.97 5.56Q13.00 5.47 13.05 5.45L13.05 5.45L13.05 5.45Q13.10 5.43 13.28 5.50L13.28 5.50L13.28 5.50Q13.41 5.57 13.41 5.61L13.41 5.61L13.41 5.61Q13.43 5.67 13.38 5.77L13.38 5.77L13.38 5.77Q13.33 5.87 13.31 5.93L13.31 5.93L13.24 6.05L13.24 6.05Q13.18 6.16 13.13 6.27L13.13 6.27L13.13 6.27Q13.08 6.37 13.03 6.47L13.03 6.47L13.03 6.47Q12.93 6.66 12.86 6.85L12.86 6.85L12.86 6.85Q12.79 7.04 12.71 7.23L12.71 7.23L12.71 7.23Q12.52 7.64 12.34 8.04L12.34 8.04L12.34 8.04Q12.15 8.45 11.93 8.84L11.93 8.84L11.93 8.84Q11.84 9.00 11.77 9.21L11.77 9.21L11.77 9.21Q11.70 9.45 11.57 9.54L11.57 9.54L11.57 9.54Q11.52 9.58 11.45 9.59L11.45 9.59L11.45 9.59Q11.41 9.60 11.33 9.57L11.33 9.57L11.33 9.57Q11.28 9.55 11.24 9.50L11.24 9.50L11.24 9.50Q11.20 9.45 11.17 9.39L11.17 9.39L11.17 9.39Q11.14 9.33 11.12 9.27L11.12 9.27L11.12 9.27Q11.09 9.21 11.07 9.16L11.07 9.16L11.07 9.16Q10.92 8.93 10.79 8.65L10.79 8.65L10.79 8.65Q10.67 8.37 10.53 8.04L10.53 8.04L10.53 8.04Q10.42 7.82 10.34 7.59L10.34 7.59L10.34 7.59Q10.25 7.37 10.14 7.15L10.14 7.15L10.14 7.15Q10.09 7.08 9.99 6.77L9.99 6.77L9.99 6.77Q9.98 6.73 9.96 6.65L9.96 6.65L9.96 6.65Q9.94 6.58 9.90 6.49L9.90 6.49L9.90 6.49Q9.84 6.34 9.77 6.21L9.77 6.21L9.77 6.21Q9.70 6.07 9.63 5.93L9.63 5.93L9.63 5.93Q9.52 5.67 9.52 5.61L9.52 5.61L9.52 5.61Q9.54 5.48 9.66 5.43L9.66 5.43L9.66 5.43Q9.86 5.35 9.96 5.59L9.96 5.59L9.96 5.59Q10.04 5.76 10.12 5.92L10.12 5.92L10.12 5.92Q10.21 6.08 10.29 6.24ZM15.06 9.29L15.06 9.29L15.06 9.29Q15.05 8.87 15.06 8.46L15.06 8.46L15.06 8.46Q15.06 8.04 15.06 7.62L15.06 7.62L15.06 7.38L15.06 7.38Q15.06 7.20 15.05 7.01L15.05 7.01L15.05 7.01Q15.04 6.82 15.05 6.64L15.05 6.64L15.05 6.64Q15.06 6.43 15.06 6.23L15.06 6.23L15.06 6.23Q15.06 6.03 15.07 5.82L15.07 5.82L15.07 5.82Q15.07 5.58 15.18 5.48L15.18 5.48L15.18 5.48Q15.27 5.41 15.50 5.41L15.50 5.41L15.50 5.41Q15.61 5.41 15.70 5.40L15.70 5.40L15.70 5.40Q15.78 5.40 15.85 5.40L15.85 5.40L15.85 5.40Q16.11 5.39 16.38 5.40L16.38 5.40L16.38 5.40Q16.65 5.41 16.91 5.41L16.91 5.41L16.91 5.41Q17.06 5.40 17.20 5.40L17.20 5.40L17.20 5.40Q17.34 5.39 17.48 5.41L17.48 5.41L17.83 5.43L17.83 5.43Q17.89 5.43 17.93 5.43L17.93 5.43L17.93 5.43Q17.98 5.43 18.01 5.45L18.01 5.45L18.01 5.45Q18.16 5.52 18.15 5.66L18.15 5.66L18.15 5.66Q18.14 5.72 18.10 5.76L18.10 5.76L18.10 5.76Q18.06 5.80 18.01 5.82L18.01 5.82L18.01 5.82Q17.96 5.84 17.90 5.84L17.90 5.84L17.90 5.84Q17.85 5.85 17.81 5.85L17.81 5.85L17.81 5.85Q17.39 5.85 16.98 5.83L16.98 5.83L16.98 5.83Q16.94 5.82 16.88 5.82L16.88 5.82L16.88 5.82Q16.82 5.82 16.74 5.82L16.74 5.82L16.34 5.82L16.34 5.82Q16.19 5.82 16.06 5.83L16.06 5.83L16.06 5.83Q15.94 5.83 15.86 5.83L15.86 5.83L15.86 5.83Q15.74 5.84 15.67 5.86L15.67 5.86L15.67 5.86Q15.59 5.89 15.56 5.94L15.56 5.94L15.56 5.94Q15.50 6.02 15.52 6.15L15.52 6.15L15.52 6.15Q15.52 6.20 15.52 6.24L15.52 6.24L15.52 6.24Q15.52 6.28 15.51 6.32L15.51 6.32L15.51 6.32Q15.50 6.40 15.49 6.49L15.49 6.49L15.49 6.49Q15.48 6.58 15.49 6.69L15.49 6.69L15.49 6.69Q15.49 6.88 15.64 7.01L15.64 7.01L15.64 7.01Q15.76 7.12 16.08 7.10L16.08 7.10L16.08 7.10Q16.23 7.10 16.37 7.08L16.37 7.08L16.37 7.08Q16.51 7.06 16.65 7.07L16.65 7.07L16.65 7.07Q16.71 7.07 16.81 7.07L16.81 7.07L16.81 7.07Q16.91 7.08 17.05 7.07L17.05 7.07L17.05 7.07Q17.32 7.06 17.42 7.16L17.42 7.16L17.42 7.16Q17.45 7.21 17.45 7.32L17.45 7.32L17.45 7.32Q17.42 7.44 17.25 7.47L17.25 7.47L17.25 7.47Q17.10 7.50 17.00 7.50L17.00 7.50L17.00 7.50Q16.88 7.51 16.76 7.50L16.76 7.50L16.76 7.50Q16.64 7.50 16.52 7.51L16.52 7.51L16.52 7.51Q16.37 7.52 16.21 7.51L16.21 7.51L16.21 7.51Q16.05 7.51 15.88 7.49L15.88 7.49L15.88 7.49Q15.86 7.49 15.83 7.49L15.83 7.49L15.83 7.49Q15.80 7.49 15.78 7.49L15.78 7.49L15.78 7.49L15.78 7.49Q15.70 7.47 15.63 7.52L15.63 7.52L15.63 7.52Q15.50 7.59 15.49 7.78L15.49 7.78L15.49 7.78Q15.48 7.96 15.49 8.09L15.49 8.09L15.49 8.09Q15.50 8.16 15.50 8.22L15.50 8.22L15.50 8.22Q15.50 8.29 15.50 8.33L15.50 8.33L15.50 8.33Q15.48 8.44 15.47 8.53L15.47 8.53L15.47 8.53Q15.46 8.63 15.45 8.74L15.45 8.74L15.45 8.74Q15.43 9.00 15.52 9.13L15.52 9.13L15.52 9.13Q15.63 9.28 15.92 9.28L15.92 9.28L15.92 9.28Q16.15 9.28 16.38 9.27L16.38 9.27L16.38 9.27Q16.61 9.26 16.84 9.25L16.84 9.25L16.84 9.25Q17.06 9.24 17.28 9.26L17.28 9.26L17.28 9.26Q17.50 9.28 17.72 9.28L17.72 9.28L17.72 9.28Q17.80 9.28 17.94 9.28L17.94 9.28L17.94 9.28Q18.07 9.28 18.15 9.32L18.15 9.32L18.15 9.32Q18.22 9.36 18.22 9.44L18.22 9.44L18.22 9.44Q18.30 9.69 18.01 9.70L18.01 9.70L18.01 9.70Q17.56 9.72 17.13 9.71L17.13 9.71L17.13 9.71Q16.69 9.71 16.26 9.71L16.26 9.71L16.26 9.71Q16.23 9.71 16.20 9.72L16.20 9.72L16.20 9.72Q16.18 9.72 16.16 9.72L16.16 9.72L16.16 9.72Q16.00 9.72 15.89 9.72L15.89 9.72L15.89 9.72Q15.78 9.72 15.70 9.71L15.70 9.71L15.70 9.71Q15.65 9.71 15.59 9.71L15.59 9.71L15.59 9.71Q15.52 9.71 15.44 9.70L15.44 9.70L15.44 9.70Q15.37 9.69 15.33 9.69L15.33 9.69L15.33 9.69Q15.29 9.68 15.26 9.67L15.26 9.67L15.26 9.67Q15.06 9.61 15.06 9.29ZM20.15 9.56L20.15 9.56L20.15 9.56Q20.13 9.68 19.94 9.70L19.94 9.70L19.94 9.70Q19.75 9.69 19.75 9.49L19.75 9.49L19.75 9.49Q19.75 8.96 19.73 8.41L19.73 8.41L19.73 8.41Q19.70 7.87 19.76 7.33L19.76 7.33L19.76 7.33L19.76 7.33Q19.76 7.17 19.76 7.02L19.76 7.02L19.76 7.02Q19.76 6.87 19.75 6.73L19.75 6.73L19.69 6.21L19.69 6.21Q19.67 5.99 19.76 5.74L19.76 5.74L19.76 5.74Q19.83 5.56 19.95 5.52L19.95 5.52L19.95 5.52Q20.04 5.50 20.15 5.62L20.15 5.62L20.15 5.62Q20.24 5.72 20.29 5.80L20.29 5.80L20.29 5.80Q20.38 5.93 20.47 6.03L20.47 6.03L20.47 6.03Q20.56 6.13 20.65 6.22L20.65 6.22L20.65 6.22Q20.73 6.31 20.81 6.37L20.81 6.37L20.81 6.37Q20.88 6.44 20.96 6.52L20.96 6.52L20.96 6.52Q21.03 6.59 21.11 6.70L21.11 6.70L21.11 6.70Q21.19 6.80 21.29 6.95L21.29 6.95L21.59 7.41L21.59 7.41Q21.62 7.46 21.66 7.52L21.66 7.52L21.66 7.52Q21.70 7.58 21.75 7.66L21.75 7.66L21.76 7.67L21.76 7.67Q21.90 7.86 22.06 8.03L22.06 8.03L22.06 8.03Q22.13 8.11 22.21 8.19L22.21 8.19L22.21 8.19Q22.29 8.26 22.37 8.33L22.37 8.33L22.37 8.33Q22.44 8.42 22.54 8.39L22.54 8.39L22.54 8.39Q22.70 8.35 22.70 8.07L22.70 8.07L22.70 8.07Q22.70 8.00 22.69 7.93L22.69 7.93L22.69 7.93Q22.67 7.85 22.67 7.78L22.67 7.78L22.67 7.78Q22.67 7.72 22.66 7.67L22.66 7.67L22.66 7.67Q22.65 7.62 22.65 7.56L22.65 7.56L22.65 7.56Q22.65 7.53 22.65 7.50L22.65 7.50L22.65 7.50Q22.65 7.46 22.65 7.42L22.65 7.42L22.65 7.42Q22.67 6.82 22.61 6.30L22.61 6.30L22.61 6.30Q22.60 6.27 22.60 6.19L22.60 6.19L22.60 6.19Q22.60 6.11 22.61 5.99L22.61 5.99L22.61 5.99Q22.62 5.84 22.65 5.67L22.65 5.67L22.65 5.67Q22.67 5.42 22.87 5.42L22.87 5.42L22.87 5.42Q23.09 5.42 23.09 5.68L23.09 5.68L23.09 5.68Q23.10 5.89 23.11 6.11L23.11 6.11L23.11 6.11Q23.12 6.32 23.12 6.54L23.12 6.54L23.12 6.54Q23.13 6.85 23.11 7.16L23.11 7.16L23.11 7.16Q23.08 7.48 23.10 7.79L23.10 7.79L23.10 7.79Q23.11 8.00 23.11 8.21L23.11 8.21L23.11 8.21Q23.11 8.42 23.10 8.62L23.10 8.62L23.10 8.62Q23.10 8.74 23.10 8.85L23.10 8.85L23.10 8.85Q23.11 8.96 23.11 9.06L23.11 9.06L23.11 9.34L23.11 9.34Q23.10 9.38 23.10 9.42L23.10 9.42L23.10 9.42Q23.09 9.46 23.09 9.50L23.09 9.50L23.09 9.50Q23.08 9.50 23.08 9.51L23.08 9.51L23.08 9.51Q23.08 9.52 23.08 9.52L23.08 9.52L23.08 9.52Q23.00 9.62 22.85 9.62L22.85 9.62L22.85 9.62Q22.66 9.63 22.57 9.50L22.57 9.50L22.57 9.50Q22.46 9.37 22.38 9.22L22.38 9.22L22.38 9.22Q22.29 9.07 22.19 8.93L22.19 8.93L22.19 8.93Q22.07 8.76 21.92 8.58L21.92 8.58L21.92 8.58Q21.77 8.39 21.59 8.18L21.59 8.18L21.59 8.18Q21.53 8.10 21.40 7.90L21.40 7.90L21.16 7.52L21.16 7.52Q21.08 7.38 20.99 7.24L20.99 7.24L20.99 7.24Q20.90 7.10 20.80 6.97L20.80 6.97L20.80 6.97Q20.76 6.92 20.71 6.87L20.71 6.87L20.71 6.87Q20.67 6.81 20.61 6.77L20.61 6.77L20.61 6.77Q20.56 6.73 20.49 6.71L20.49 6.71L20.49 6.71Q20.42 6.69 20.35 6.71L20.35 6.71L20.35 6.71Q20.17 6.76 20.18 7.08L20.18 7.08L20.18 7.08Q20.19 7.31 20.19 7.52L20.19 7.52L20.19 7.52Q20.19 7.72 20.21 7.90L20.21 7.90L20.21 7.90Q20.22 8.05 20.20 8.19L20.20 8.19L20.20 8.19Q20.19 8.33 20.19 8.47L20.19 8.47L20.19 9.00L20.19 9.00Q20.19 9.17 20.18 9.31L20.18 9.31L20.18 9.31Q20.17 9.45 20.15 9.56ZM28.29 5.75L28.29 5.75L28.29 5.75Q28.20 5.86 27.98 5.84L27.98 5.84L27.64 5.82L27.64 5.82Q27.54 5.82 27.44 5.81L27.44 5.81L27.44 5.81Q27.34 5.80 27.24 5.80L27.24 5.80L27.24 5.80Q27.04 5.80 26.94 5.89L26.94 5.89L26.94 5.89Q26.87 5.98 26.87 6.19L26.87 6.19L26.87 6.19Q26.87 6.28 26.88 6.37L26.88 6.37L26.88 6.37Q26.89 6.47 26.89 6.56L26.89 6.56L26.89 6.56Q26.89 6.79 26.90 6.96L26.90 6.96L26.90 6.96Q26.90 7.12 26.90 7.24L26.90 7.24L26.90 7.24Q26.90 7.59 26.86 7.94L26.86 7.94L26.86 7.94Q26.84 8.10 26.86 8.26L26.86 8.26L26.86 8.26Q26.88 8.43 26.89 8.59L26.89 8.59L26.89 8.59Q26.89 8.76 26.90 8.89L26.90 8.89L26.90 8.89Q26.90 9.02 26.90 9.11L26.90 9.11L26.90 9.11Q26.90 9.15 26.90 9.20L26.90 9.20L26.90 9.20Q26.90 9.26 26.89 9.35L26.89 9.35L26.89 9.35Q26.88 9.54 26.87 9.58L26.87 9.58L26.87 9.58Q26.78 9.73 26.63 9.69L26.63 9.69L26.63 9.69Q26.46 9.65 26.46 9.43L26.46 9.43L26.46 9.43Q26.45 9.22 26.47 9.01L26.47 9.01L26.47 9.01Q26.48 8.80 26.50 8.60L26.50 8.60L26.50 8.60Q26.52 8.36 26.49 8.11L26.49 8.11L26.49 8.11Q26.47 7.87 26.47 7.62L26.47 7.62L26.47 7.62Q26.47 7.40 26.49 7.17L26.49 7.17L26.49 7.17Q26.50 6.94 26.51 6.71L26.51 6.71L26.51 6.71Q26.51 6.27 26.37 6.08L26.37 6.08L26.37 6.08Q26.29 5.99 26.19 5.94L26.19 5.94L26.19 5.94Q26.08 5.89 25.95 5.87L25.95 5.87L25.95 5.87Q25.82 5.86 25.71 5.85L25.71 5.85L25.71 5.85Q25.59 5.84 25.48 5.84L25.48 5.84L25.48 5.84Q25.40 5.84 25.28 5.84L25.28 5.84L25.28 5.84Q25.15 5.84 25.08 5.80L25.08 5.80L25.08 5.80Q25.03 5.77 25.01 5.67L25.01 5.67L25.01 5.67Q25.00 5.59 25.03 5.54L25.03 5.54L25.03 5.54Q25.08 5.46 25.27 5.43L25.27 5.43L25.27 5.43Q25.29 5.43 25.35 5.43L25.35 5.43L25.35 5.43Q25.63 5.42 25.90 5.45L25.90 5.45L25.90 5.45Q26.17 5.48 26.46 5.46L26.46 5.46L26.46 5.46Q26.58 5.46 26.69 5.44L26.69 5.44L26.69 5.44Q26.80 5.43 26.93 5.43L26.93 5.43L26.93 5.43Q27.15 5.43 27.38 5.43L27.38 5.43L27.38 5.43Q27.61 5.43 27.84 5.42L27.84 5.42L27.84 5.42Q27.95 5.42 28.04 5.43L28.04 5.43L28.04 5.43Q28.12 5.43 28.18 5.46L28.18 5.46L28.18 5.46Q28.40 5.61 28.29 5.75ZM32.80 5.46L32.80 5.46L32.80 5.46Q33.09 5.45 32.93 5.76L32.93 5.76L32.93 5.76Q32.89 5.82 32.83 5.91L32.83 5.91L32.83 5.91Q32.77 6.00 32.68 6.12L32.68 6.12L32.68 6.12Q32.48 6.38 32.38 6.60L32.38 6.60L32.38 6.60Q32.27 6.80 32.14 7.01L32.14 7.01L32.14 7.01Q32.01 7.21 31.85 7.42L31.85 7.42L31.85 7.43L31.85 7.43Q31.77 7.55 31.73 7.67L31.73 7.67L31.73 7.67Q31.69 7.78 31.68 7.88L31.68 7.88L31.68 7.88Q31.66 8.00 31.68 8.12L31.68 8.12L31.68 8.12Q31.70 8.24 31.70 8.35L31.70 8.35L31.70 8.35Q31.70 8.52 31.69 8.67L31.69 8.67L31.69 8.67Q31.68 8.83 31.70 8.99L31.70 8.99L31.70 8.99Q31.71 9.05 31.71 9.13L31.71 9.13L31.71 9.13Q31.72 9.21 31.73 9.32L31.73 9.32L31.73 9.32Q31.74 9.54 31.66 9.64L31.66 9.64L31.66 9.64Q31.61 9.69 31.51 9.70L31.51 9.70L31.51 9.70Q31.29 9.72 31.27 9.38L31.27 9.38L31.27 9.38Q31.25 9.07 31.28 8.75L31.28 8.75L31.28 8.75Q31.31 8.43 31.33 8.11L31.33 8.11L31.33 8.11Q31.35 7.85 31.24 7.68L31.24 7.68L31.24 7.68Q31.19 7.61 31.13 7.51L31.13 7.51L31.13 7.51Q31.08 7.42 31.01 7.31L31.01 7.31L31.01 7.31Q30.94 7.19 30.87 7.07L30.87 7.07L30.87 7.07Q30.80 6.95 30.72 6.83L30.72 6.83L30.72 6.83Q30.64 6.70 30.58 6.60L30.58 6.60L30.58 6.60Q30.53 6.50 30.50 6.43L30.50 6.43L30.50 6.43Q30.44 6.34 30.41 6.27L30.41 6.27L30.41 6.27Q30.37 6.20 30.34 6.17L30.34 6.17L30.34 6.17Q30.32 6.13 30.28 6.08L30.28 6.08L30.28 6.08Q30.24 6.02 30.18 5.95L30.18 5.95L30.18 5.95Q30.01 5.74 30.01 5.63L30.01 5.63L30.01 5.63Q30.00 5.57 30.04 5.50L30.04 5.50L30.04 5.50Q30.23 5.28 30.40 5.53L30.40 5.53L30.40 5.53Q30.54 5.74 30.65 5.96L30.65 5.96L30.65 5.96Q30.76 6.19 30.88 6.40L30.88 6.40L30.88 6.40Q30.98 6.56 31.05 6.66L31.05 6.66L31.05 6.66Q31.12 6.77 31.19 6.83L31.19 6.83L31.19 6.83Q31.36 7.01 31.54 6.97L31.54 6.97L31.54 6.97Q31.71 6.94 31.86 6.72L31.86 6.72L31.86 6.72Q31.92 6.64 31.97 6.55L31.97 6.55L31.97 6.55Q32.03 6.46 32.09 6.37L32.09 6.37L32.09 6.37Q32.14 6.30 32.18 6.22L32.18 6.22L32.18 6.22Q32.22 6.13 32.26 6.04L32.26 6.04L32.26 6.04Q32.30 5.95 32.34 5.87L32.34 5.87L32.34 5.87Q32.38 5.78 32.44 5.69L32.44 5.69L32.44 5.69Q32.59 5.48 32.80 5.46ZM40.53 5.75L40.53 5.75L40.53 5.75Q40.43 5.86 40.22 5.84L40.22 5.84L39.87 5.82L39.87 5.82Q39.77 5.82 39.68 5.81L39.68 5.81L39.68 5.81Q39.58 5.80 39.48 5.80L39.48 5.80L39.48 5.80Q39.27 5.80 39.18 5.89L39.18 5.89L39.18 5.89Q39.10 5.98 39.10 6.19L39.10 6.19L39.10 6.19Q39.10 6.28 39.11 6.37L39.11 6.37L39.11 6.37Q39.12 6.47 39.12 6.56L39.12 6.56L39.12 6.56Q39.13 6.79 39.13 6.96L39.13 6.96L39.13 6.96Q39.14 7.12 39.14 7.24L39.14 7.24L39.14 7.24Q39.14 7.59 39.09 7.94L39.09 7.94L39.09 7.94Q39.07 8.10 39.09 8.26L39.09 8.26L39.09 8.26Q39.12 8.43 39.12 8.59L39.12 8.59L39.12 8.59Q39.13 8.76 39.13 8.89L39.13 8.89L39.13 8.89Q39.14 9.02 39.14 9.11L39.14 9.11L39.14 9.11Q39.14 9.15 39.14 9.20L39.14 9.20L39.14 9.20Q39.14 9.26 39.13 9.35L39.13 9.35L39.13 9.35Q39.12 9.54 39.10 9.58L39.10 9.58L39.10 9.58Q39.01 9.73 38.87 9.69L38.87 9.69L38.87 9.69Q38.69 9.65 38.69 9.43L38.69 9.43L38.69 9.43Q38.68 9.22 38.70 9.01L38.70 9.01L38.70 9.01Q38.72 8.80 38.73 8.60L38.73 8.60L38.73 8.60Q38.75 8.36 38.73 8.11L38.73 8.11L38.73 8.11Q38.71 7.87 38.71 7.62L38.71 7.62L38.71 7.62Q38.71 7.40 38.72 7.17L38.72 7.17L38.72 7.17Q38.74 6.94 38.75 6.71L38.75 6.71L38.75 6.71Q38.75 6.27 38.60 6.08L38.60 6.08L38.60 6.08Q38.53 5.99 38.42 5.94L38.42 5.94L38.42 5.94Q38.32 5.89 38.19 5.87L38.19 5.87L38.19 5.87Q38.06 5.86 37.94 5.85L37.94 5.85L37.94 5.85Q37.83 5.84 37.72 5.84L37.72 5.84L37.72 5.84Q37.64 5.84 37.51 5.84L37.51 5.84L37.51 5.84Q37.39 5.84 37.32 5.80L37.32 5.80L37.32 5.80Q37.26 5.77 37.25 5.67L37.25 5.67L37.25 5.67Q37.24 5.59 37.27 5.54L37.27 5.54L37.27 5.54Q37.32 5.46 37.51 5.43L37.51 5.43L37.51 5.43Q37.53 5.43 37.58 5.43L37.58 5.43L37.58 5.43Q37.87 5.42 38.14 5.45L38.14 5.45L38.14 5.45Q38.41 5.48 38.70 5.46L38.70 5.46L38.70 5.46Q38.81 5.46 38.93 5.44L38.93 5.44L38.93 5.44Q39.04 5.43 39.16 5.43L39.16 5.43L39.16 5.43Q39.39 5.43 39.62 5.43L39.62 5.43L39.62 5.43Q39.85 5.43 40.07 5.42L40.07 5.42L40.07 5.42Q40.19 5.42 40.27 5.43L40.27 5.43L40.27 5.43Q40.36 5.43 40.42 5.46L40.42 5.46L40.42 5.46Q40.63 5.61 40.53 5.75ZM43.76 7.01L43.76 7.01L43.76 7.01Q44.01 7.01 44.26 7.02L44.26 7.02L44.26 7.02Q44.50 7.03 44.75 7.07L44.75 7.07L44.75 7.07Q44.94 7.10 45.04 6.99L45.04 6.99L45.04 6.99Q45.12 6.90 45.11 6.78L45.11 6.78L45.11 6.78Q45.11 6.66 45.11 6.55L45.11 6.55L45.11 6.55Q45.12 6.38 45.12 6.25L45.12 6.25L45.12 6.25Q45.12 6.13 45.12 6.04L45.12 6.04L45.12 6.04Q45.12 6.00 45.12 5.93L45.12 5.93L45.12 5.93Q45.12 5.87 45.13 5.79L45.13 5.79L45.13 5.79Q45.13 5.72 45.14 5.65L45.14 5.65L45.14 5.65Q45.15 5.58 45.17 5.54L45.17 5.54L45.17 5.54Q45.23 5.40 45.40 5.41L45.40 5.41L45.40 5.41Q45.58 5.43 45.58 5.72L45.58 5.72L45.58 5.72Q45.57 5.89 45.55 6.06L45.55 6.06L45.55 6.06Q45.54 6.23 45.55 6.40L45.55 6.40L45.55 6.41L45.55 6.41Q45.55 6.68 45.57 6.95L45.57 6.95L45.57 6.95Q45.58 7.23 45.60 7.49L45.60 7.49L45.60 7.49Q45.61 7.66 45.60 7.82L45.60 7.82L45.60 7.82Q45.58 7.99 45.58 8.16L45.58 8.16L45.58 8.16Q45.58 8.44 45.58 8.73L45.58 8.73L45.58 8.73Q45.58 9.01 45.58 9.30L45.58 9.30L45.58 9.30Q45.58 9.55 45.53 9.63L45.53 9.63L45.53 9.63Q45.50 9.67 45.42 9.69L45.42 9.69L45.42 9.69Q45.17 9.75 45.14 9.47L45.14 9.47L45.14 9.47Q45.10 9.13 45.11 8.77L45.11 8.77L45.11 8.77Q45.12 8.42 45.11 8.06L45.11 8.06L45.11 8.06Q45.10 7.93 45.08 7.77L45.08 7.77L45.08 7.77Q45.06 7.62 44.95 7.52L44.95 7.52L44.95 7.52Q44.84 7.44 44.59 7.44L44.59 7.44L44.59 7.44Q44.47 7.44 44.35 7.44L44.35 7.44L44.35 7.44Q44.23 7.45 44.11 7.44L44.11 7.44L43.72 7.44L43.72 7.44Q43.59 7.45 43.47 7.44L43.47 7.44L43.47 7.44Q43.35 7.43 43.23 7.42L43.23 7.42L43.23 7.42Q42.97 7.40 42.84 7.49L42.84 7.49L42.84 7.49Q42.68 7.63 42.68 7.95L42.68 7.95L42.68 7.95Q42.68 8.16 42.69 8.38L42.69 8.38L42.69 8.38Q42.70 8.59 42.70 8.80L42.70 8.80L42.70 8.80Q42.70 8.97 42.69 9.10L42.69 9.10L42.69 9.10Q42.68 9.22 42.68 9.31L42.68 9.31L42.68 9.31Q42.68 9.41 42.67 9.47L42.67 9.47L42.67 9.47Q42.66 9.54 42.65 9.59L42.65 9.59L42.65 9.59Q42.57 9.73 42.41 9.69L42.41 9.69L42.41 9.69Q42.25 9.67 42.25 9.44L42.25 9.44L42.25 9.44Q42.25 9.21 42.25 9.00L42.25 9.00L42.25 9.00Q42.25 8.78 42.25 8.55L42.25 8.55L42.25 8.55Q42.26 8.34 42.25 8.12L42.25 8.12L42.25 8.12Q42.25 7.91 42.25 7.69L42.25 7.69L42.25 7.69Q42.25 7.34 42.25 6.99L42.25 6.99L42.25 6.99Q42.26 6.64 42.27 6.30L42.27 6.30L42.27 6.30Q42.27 6.24 42.26 6.15L42.26 6.15L42.26 6.15Q42.25 6.05 42.25 5.91L42.25 5.91L42.25 5.91Q42.23 5.61 42.27 5.54L42.27 5.54L42.27 5.54Q42.36 5.41 42.47 5.41L42.47 5.41L42.47 5.41Q42.68 5.42 42.70 5.74L42.70 5.74L42.70 5.74Q42.70 5.82 42.71 5.88L42.71 5.88L42.71 5.88Q42.71 5.94 42.71 5.99L42.71 5.99L42.71 5.99Q42.71 6.02 42.71 6.08L42.71 6.08L42.71 6.08Q42.71 6.15 42.70 6.23L42.70 6.23L42.70 6.23Q42.68 6.33 42.67 6.43L42.67 6.43L42.67 6.43Q42.66 6.54 42.66 6.63L42.66 6.63L42.66 6.63Q42.64 6.85 42.74 6.93L42.74 6.93L42.74 6.93Q42.84 7.01 43.01 6.98L43.01 6.98L43.01 6.98Q43.11 6.97 43.18 6.97L43.18 6.97L43.18 6.97Q43.24 6.97 43.29 6.97L43.29 6.97L43.29 6.97Q43.41 6.98 43.52 6.99L43.52 6.99L43.52 6.99Q43.64 7.01 43.76 7.01ZM48.89 9.69L48.89 9.69L48.89 9.69Q48.75 9.65 48.61 9.58L48.61 9.58L48.61 9.58Q48.47 9.52 48.34 9.43L48.34 9.43L48.34 9.43Q48.21 9.34 48.09 9.24L48.09 9.24L48.09 9.24Q47.97 9.13 47.89 9.01L47.89 9.01L47.89 9.01Q47.78 8.84 47.74 8.66L47.74 8.66L47.74 8.66Q47.69 8.48 47.60 8.29L47.60 8.29L47.60 8.29Q47.53 8.13 47.52 7.96L47.52 7.96L47.52 7.96Q47.52 7.88 47.51 7.79L47.51 7.79L47.51 7.79Q47.50 7.70 47.50 7.62L47.50 7.62L47.50 7.62Q47.49 7.54 47.49 7.48L47.49 7.48L47.49 7.48Q47.48 7.42 47.48 7.38L47.48 7.38L47.48 7.38Q47.48 7.25 47.50 7.11L47.50 7.11L47.50 7.11Q47.52 6.97 47.55 6.82L47.55 6.82L47.55 6.82Q47.56 6.77 47.59 6.69L47.59 6.69L47.59 6.69Q47.66 6.49 47.77 6.31L47.77 6.31L47.77 6.31Q47.87 6.13 48.01 5.97L48.01 5.97L48.01 5.97Q48.28 5.67 48.75 5.43L48.75 5.43L48.75 5.43Q48.97 5.34 49.21 5.35L49.21 5.35L49.21 5.35Q49.36 5.36 49.51 5.39L49.51 5.39L49.51 5.39Q49.64 5.41 49.73 5.42L49.73 5.42L49.73 5.42Q49.82 5.43 49.89 5.44L49.89 5.44L49.89 5.44Q50.42 5.50 50.82 5.91L50.82 5.91L50.82 5.91Q50.91 6.00 50.99 6.10L50.99 6.10L50.99 6.10Q51.06 6.21 51.14 6.33L51.14 6.33L51.17 6.38L51.17 6.38Q51.18 6.41 51.19 6.42L51.19 6.42L51.19 6.42Q51.19 6.43 51.20 6.45L51.20 6.45L51.20 6.45Q51.32 6.72 51.41 7.13L51.41 7.13L51.41 7.13Q51.50 7.51 51.44 7.83L51.44 7.83L51.44 7.83Q51.40 8.02 51.34 8.19L51.34 8.19L51.34 8.19Q51.28 8.36 51.23 8.53L51.23 8.53L51.23 8.53Q50.96 9.45 50.03 9.69L50.03 9.69L49.97 9.70L49.97 9.70Q49.92 9.71 49.83 9.73L49.83 9.73L49.83 9.73Q49.75 9.74 49.64 9.75L49.64 9.75L49.64 9.75Q49.46 9.78 49.28 9.76L49.28 9.76L49.28 9.76Q49.09 9.75 48.89 9.69ZM49.59 5.78L49.58 5.78L49.58 5.78Q49.21 5.78 48.91 5.87L48.91 5.87L48.91 5.87Q48.62 5.95 48.38 6.19L48.38 6.19L48.38 6.19Q48.05 6.52 47.96 6.92L47.96 6.92L47.96 6.92Q47.87 7.32 47.97 7.81L47.97 7.81L48.03 8.15L48.03 8.15Q48.04 8.24 48.06 8.30L48.06 8.30L48.06 8.30Q48.07 8.36 48.08 8.37L48.08 8.37L48.08 8.37Q48.12 8.52 48.24 8.66L48.24 8.66L48.24 8.66Q48.36 8.80 48.47 8.90L48.47 8.90L48.47 8.90Q48.52 8.96 48.58 9.02L48.58 9.02L48.58 9.02Q48.63 9.08 48.69 9.13L48.69 9.13L48.69 9.13Q48.79 9.21 49.03 9.29L49.03 9.29L49.04 9.29L49.04 9.29Q49.17 9.32 49.33 9.31L49.33 9.31L49.33 9.31Q49.49 9.30 49.69 9.26L49.69 9.26L49.69 9.26Q49.79 9.23 49.89 9.22L49.89 9.22L49.89 9.22Q49.98 9.21 50.09 9.18L50.09 9.18L50.09 9.18Q50.34 9.12 50.51 8.91L50.51 8.91L50.52 8.91L50.52 8.90L50.52 8.90Q50.63 8.77 50.70 8.57L50.70 8.57L50.70 8.57Q50.77 8.37 50.80 8.32L50.80 8.32L50.80 8.32Q51.15 7.65 50.91 6.87L50.91 6.87L50.90 6.86L50.90 6.86Q50.87 6.79 50.85 6.72L50.85 6.72L50.85 6.72Q50.82 6.65 50.77 6.58L50.77 6.58L50.77 6.58Q50.50 6.18 50.13 6.00L50.13 6.00L50.13 6.00Q50.12 6.00 50.07 5.97L50.07 5.97L50.07 5.97Q50.03 5.94 49.94 5.89L49.94 5.89L49.94 5.89Q49.81 5.81 49.59 5.78L49.59 5.78ZM56.42 5.42L56.42 5.42L56.42 5.42Q56.62 5.41 56.62 5.63L56.62 5.63L56.62 5.63Q56.62 5.91 56.62 6.19L56.62 6.19L56.62 6.19Q56.62 6.46 56.58 6.75L56.58 6.75L56.58 6.75Q56.55 7.01 56.58 7.27L56.58 7.27L56.58 7.27Q56.61 7.53 56.61 7.79L56.61 7.79L56.61 7.84L56.58 8.31L56.58 8.31Q56.57 8.46 56.55 8.57L56.55 8.57L56.55 8.57Q56.53 8.69 56.51 8.76L56.51 8.76L56.50 8.79L56.49 8.84L56.49 8.85L56.49 8.85Q56.46 8.93 56.41 9.01L56.41 9.01L56.41 9.01Q56.36 9.10 56.29 9.18L56.29 9.18L56.29 9.18Q56.23 9.26 56.15 9.32L56.15 9.32L56.15 9.32Q56.08 9.39 56.01 9.45L56.01 9.45L56.01 9.45Q55.90 9.55 55.76 9.61L55.76 9.61L55.76 9.61Q55.62 9.67 55.47 9.70L55.47 9.70L55.47 9.70Q55.32 9.73 55.17 9.74L55.17 9.74L55.17 9.74Q55.02 9.75 54.87 9.75L54.87 9.75L54.87 9.75Q54.62 9.75 54.38 9.69L54.38 9.69L54.38 9.69Q54.14 9.63 53.92 9.50L53.92 9.50L53.92 9.50Q53.90 9.48 53.90 9.47L53.90 9.47L53.90 9.47Q53.88 9.47 53.87 9.45L53.87 9.45L53.87 9.45Q53.85 9.44 53.84 9.43L53.84 9.43L53.84 9.43Q53.82 9.41 53.81 9.40L53.81 9.40L53.81 9.40Q53.79 9.39 53.78 9.37L53.78 9.37L53.78 9.37Q53.44 9.01 53.34 8.47L53.34 8.47L53.34 8.47Q53.30 8.20 53.29 7.95L53.29 7.95L53.29 7.95Q53.27 7.69 53.29 7.44L53.29 7.44L53.29 7.44Q53.29 7.38 53.30 7.32L53.30 7.32L53.30 7.32Q53.31 7.27 53.31 7.21L53.31 7.21L53.31 7.21Q53.32 7.12 53.32 7.05L53.32 7.05L53.32 7.05Q53.31 6.97 53.31 6.90L53.31 6.90L53.31 6.90Q53.27 6.36 53.29 5.63L53.29 5.63L53.29 5.63Q53.29 5.48 53.46 5.42L53.46 5.42L53.46 5.42Q53.60 5.38 53.70 5.45L53.70 5.45L53.70 5.45Q53.75 5.50 53.75 5.57L53.75 5.57L53.75 5.57Q53.76 5.67 53.75 5.82L53.75 5.82L53.75 5.82Q53.75 5.97 53.74 6.17L53.74 6.17L53.74 6.17Q53.74 6.34 53.73 6.51L53.73 6.51L53.73 6.51Q53.72 6.68 53.72 6.84L53.72 6.84L53.72 6.84Q53.72 7.05 53.70 7.24L53.70 7.24L53.70 7.24Q53.69 7.44 53.69 7.64L53.69 7.64L53.69 7.64Q53.69 8.02 53.81 8.50L53.81 8.50L53.81 8.50Q53.83 8.56 53.84 8.61L53.84 8.61L53.84 8.61Q53.86 8.66 53.87 8.72L53.87 8.72L53.87 8.72Q53.98 9.04 54.19 9.16L54.19 9.16L54.19 9.16Q54.35 9.26 54.78 9.28L54.78 9.28L54.78 9.28Q54.83 9.29 54.89 9.30L54.89 9.30L54.89 9.30Q54.94 9.31 55.00 9.31L55.00 9.31L55.01 9.31L55.02 9.31L55.02 9.31Q55.34 9.31 55.59 9.19L55.59 9.19L55.59 9.19Q55.84 9.08 56.01 8.79L56.01 8.79L56.01 8.79Q56.14 8.56 56.14 8.08L56.14 8.08L56.14 8.08Q56.14 7.99 56.14 7.93L56.14 7.93L56.14 7.93Q56.14 7.86 56.15 7.82L56.15 7.82L56.15 7.82Q56.22 7.21 56.14 6.55L56.14 6.55L56.14 6.55Q56.12 6.46 56.16 6.22L56.16 6.22L56.16 6.22Q56.17 6.13 56.18 6.05L56.18 6.05L56.18 6.05Q56.18 5.97 56.18 5.92L56.18 5.92L56.18 5.92Q56.18 5.63 56.23 5.52L56.23 5.52L56.23 5.52Q56.28 5.42 56.42 5.42ZM61.46 9.08L61.46 9.08L61.46 9.08Q61.34 9.23 61.23 9.34L61.23 9.34L61.23 9.34Q61.13 9.45 61.01 9.53L61.01 9.53L61.01 9.53Q60.89 9.60 60.75 9.66L60.75 9.66L60.75 9.66Q60.61 9.71 60.44 9.73L60.44 9.73L60.44 9.73Q60.35 9.74 60.25 9.74L60.25 9.74L60.25 9.74Q60.16 9.75 60.05 9.73L60.05 9.73L60.05 9.73Q59.90 9.72 59.75 9.72L59.75 9.72L59.75 9.72Q59.61 9.72 59.46 9.69L59.46 9.69L59.46 9.69Q59.13 9.61 58.91 9.46L58.91 9.46L58.91 9.46Q58.69 9.31 58.58 9.07L58.58 9.07L58.58 9.07Q58.43 8.74 58.75 8.73L58.75 8.73L58.75 8.73Q58.80 8.73 58.87 8.81L58.87 8.81L58.87 8.81Q58.95 8.89 58.99 8.93L58.99 8.93L58.99 8.93Q59.13 9.07 59.15 9.08L59.15 9.08L59.16 9.08L59.16 9.09L59.16 9.09Q59.49 9.32 60.05 9.32L60.05 9.32L60.05 9.32L60.06 9.32L60.06 9.32Q60.29 9.32 60.66 9.23L60.66 9.23L60.66 9.23Q61.01 9.14 61.13 8.87L61.13 8.87L61.13 8.87Q61.19 8.70 61.13 8.51L61.13 8.51L61.13 8.50L61.13 8.50Q60.96 8.14 60.46 8.02L60.46 8.02L59.62 7.80L59.62 7.80Q59.45 7.76 59.19 7.63L59.19 7.63L59.19 7.63Q59.06 7.56 58.97 7.51L58.97 7.51L58.97 7.51Q58.87 7.45 58.81 7.40L58.81 7.40L58.81 7.40Q58.53 7.19 58.48 6.99L58.48 6.99L58.48 6.99Q58.47 6.95 58.47 6.89L58.47 6.89L58.47 6.89Q58.47 6.83 58.47 6.74L58.47 6.74L58.47 6.74Q58.47 6.64 58.49 6.55L58.49 6.55L58.49 6.55Q58.50 6.46 58.52 6.36L58.52 6.36L58.52 6.36Q58.56 6.04 58.78 5.80L58.78 5.80L58.78 5.80Q58.88 5.69 59.03 5.62L59.03 5.62L59.03 5.62Q59.18 5.55 59.32 5.49L59.32 5.49L59.32 5.49Q59.51 5.40 59.72 5.40L59.72 5.40L59.72 5.40Q59.92 5.39 60.13 5.40L60.13 5.40L60.13 5.40Q60.80 5.42 61.17 5.87L61.17 5.87L61.17 5.87Q61.35 6.08 61.30 6.22L61.30 6.22L61.26 6.26L61.26 6.26Q61.15 6.32 61.00 6.19L61.00 6.19L61.00 6.19Q60.96 6.16 60.92 6.13L60.92 6.13L60.92 6.13Q60.89 6.09 60.85 6.06L60.85 6.06L60.85 6.06Q60.82 6.02 60.76 5.98L60.76 5.98L60.76 5.98Q60.71 5.95 60.64 5.91L60.64 5.91L60.63 5.90L60.61 5.90L60.61 5.90Q60.35 5.82 60.09 5.81L60.09 5.81L60.09 5.81Q59.83 5.80 59.55 5.86L59.55 5.86L59.55 5.86Q59.21 5.93 59.04 6.14L59.04 6.14L59.04 6.14Q58.86 6.34 58.86 6.67L58.86 6.67L58.86 6.69L58.86 6.70L58.86 6.70Q58.89 7.12 59.52 7.30L59.52 7.30L59.72 7.36L60.22 7.53L60.22 7.53Q60.34 7.57 60.46 7.62L60.46 7.62L60.46 7.62Q60.57 7.67 60.70 7.72L60.70 7.72L60.70 7.72Q60.89 7.81 61.06 7.90L61.06 7.90L61.06 7.90Q61.22 7.98 61.36 8.07L61.36 8.07L61.36 8.07Q61.46 8.13 61.51 8.22L61.51 8.22L61.51 8.22Q61.56 8.31 61.57 8.41L61.57 8.41L61.57 8.41Q61.59 8.51 61.59 8.62L61.59 8.62L61.59 8.62Q61.58 8.73 61.56 8.82L61.56 8.82L61.56 8.82Q61.55 8.89 61.52 8.96L61.52 8.96L61.52 8.96Q61.49 9.03 61.46 9.08ZM67.14 9.47L67.14 9.47L67.14 9.47Q67.14 9.65 66.99 9.69L66.99 9.69L66.99 9.69Q66.87 9.75 66.77 9.61L66.77 9.61L66.77 9.61Q66.73 9.54 66.69 9.49L66.69 9.49L66.69 9.49Q66.66 9.43 66.64 9.39L66.64 9.39L66.64 9.39Q66.55 9.18 66.47 9.03L66.47 9.03L66.47 9.03Q66.40 8.87 66.32 8.78L66.32 8.78L66.32 8.78Q66.16 8.55 65.96 8.49L65.96 8.49L65.96 8.49Q65.79 8.44 65.41 8.48L65.41 8.48L65.41 8.48Q65.19 8.50 65.00 8.51L65.00 8.51L65.00 8.51Q64.80 8.52 64.63 8.50L64.63 8.50L64.63 8.50Q64.23 8.48 64.04 8.76L64.04 8.76L64.03 8.78L64.02 8.79L64.02 8.79Q63.95 8.93 63.91 9.06L63.91 9.06L63.91 9.06Q63.86 9.19 63.80 9.32L63.80 9.32L63.66 9.54L63.66 9.54Q63.56 9.69 63.46 9.70L63.46 9.70L63.46 9.70Q63.41 9.72 63.32 9.65L63.32 9.65L63.32 9.65Q63.28 9.60 63.27 9.55L63.27 9.55L63.27 9.55Q63.26 9.49 63.27 9.43L63.27 9.43L63.27 9.43Q63.28 9.37 63.30 9.30L63.30 9.30L63.30 9.30Q63.33 9.24 63.35 9.19L63.35 9.19L63.51 8.85L63.51 8.85Q63.75 8.35 63.96 7.85L63.96 7.85L63.96 7.85Q64.17 7.34 64.40 6.83L64.40 6.83L64.40 6.83Q64.44 6.74 64.47 6.66L64.47 6.66L64.47 6.66Q64.50 6.58 64.54 6.51L64.54 6.51L64.54 6.51Q64.61 6.32 64.69 6.14L64.69 6.14L64.69 6.14Q64.76 5.95 64.86 5.76L64.86 5.76L64.96 5.61L64.96 5.61Q65.04 5.48 65.11 5.48L65.11 5.48L65.11 5.48Q65.17 5.46 65.28 5.59L65.28 5.59L65.28 5.59Q65.40 5.73 65.51 5.91L65.51 5.91L65.51 5.91Q65.61 6.10 65.69 6.26L65.69 6.26L65.69 6.26Q65.93 6.77 66.13 7.28L66.13 7.28L66.13 7.28Q66.34 7.79 66.58 8.28L66.58 8.28L66.58 8.28Q66.66 8.43 66.73 8.58L66.73 8.58L66.73 8.58Q66.80 8.74 66.88 8.88L66.88 8.88L66.88 8.88Q66.92 8.98 66.97 9.08L66.97 9.08L66.97 9.08Q67.01 9.17 67.05 9.27L67.05 9.27L67.05 9.27Q67.09 9.34 67.11 9.39L67.11 9.39L67.11 9.39Q67.13 9.44 67.14 9.47ZM65.78 7.56L65.78 7.56L65.78 7.56Q65.71 7.40 65.65 7.22L65.65 7.22L65.65 7.22Q65.58 7.05 65.50 6.88L65.50 6.88L65.50 6.88Q65.33 6.57 65.13 6.58L65.13 6.58L65.13 6.58Q65.06 6.58 65.00 6.62L65.00 6.62L65.00 6.62Q64.94 6.67 64.90 6.72L64.90 6.72L64.90 6.72Q64.86 6.78 64.83 6.85L64.83 6.85L64.83 6.85Q64.79 6.92 64.77 6.98L64.77 6.98L64.77 6.98Q64.70 7.18 64.63 7.40L64.63 7.40L64.63 7.40Q64.56 7.62 64.50 7.83L64.50 7.83L64.50 7.83Q64.45 7.98 64.51 8.05L64.51 8.05L64.51 8.05Q64.55 8.12 64.72 8.13L64.72 8.13L64.72 8.13Q64.87 8.14 64.99 8.15L64.99 8.15L64.99 8.15Q65.11 8.15 65.18 8.14L65.18 8.14L65.18 8.14Q65.33 8.14 65.58 8.10L65.58 8.10L65.58 8.10Q65.83 8.06 65.88 7.88L65.88 7.88L65.88 7.88Q65.90 7.77 65.85 7.69L65.85 7.69L65.85 7.69Q65.84 7.66 65.81 7.63L65.81 7.63L65.81 7.63Q65.79 7.59 65.78 7.56ZM69.23 9.56L69.23 9.56L69.23 9.56Q69.20 9.68 69.02 9.70L69.02 9.70L69.02 9.70Q68.82 9.69 68.82 9.49L68.82 9.49L68.82 9.49Q68.82 8.96 68.80 8.41L68.80 8.41L68.80 8.41Q68.78 7.87 68.83 7.33L68.83 7.33L68.83 7.33L68.83 7.33Q68.83 7.17 68.83 7.02L68.83 7.02L68.83 7.02Q68.84 6.87 68.82 6.73L68.82 6.73L68.77 6.21L68.77 6.21Q68.75 5.99 68.84 5.74L68.84 5.74L68.84 5.74Q68.91 5.56 69.02 5.52L69.02 5.52L69.02 5.52Q69.12 5.50 69.22 5.62L69.22 5.62L69.22 5.62Q69.32 5.72 69.36 5.80L69.36 5.80L69.36 5.80Q69.45 5.93 69.55 6.03L69.55 6.03L69.55 6.03Q69.64 6.13 69.73 6.22L69.73 6.22L69.73 6.22Q69.80 6.31 69.88 6.37L69.88 6.37L69.88 6.37Q69.96 6.44 70.03 6.52L70.03 6.52L70.03 6.52Q70.10 6.59 70.18 6.70L70.18 6.70L70.18 6.70Q70.27 6.80 70.36 6.95L70.36 6.95L70.66 7.41L70.66 7.41Q70.70 7.46 70.73 7.52L70.73 7.52L70.73 7.52Q70.77 7.58 70.83 7.66L70.83 7.66L70.83 7.67L70.83 7.67Q70.98 7.86 71.13 8.03L71.13 8.03L71.13 8.03Q71.21 8.11 71.29 8.19L71.29 8.19L71.29 8.19Q71.36 8.26 71.44 8.33L71.44 8.33L71.44 8.33Q71.52 8.42 71.62 8.39L71.62 8.39L71.62 8.39Q71.78 8.35 71.77 8.07L71.77 8.07L71.77 8.07Q71.77 8.00 71.76 7.93L71.76 7.93L71.76 7.93Q71.75 7.85 71.75 7.78L71.75 7.78L71.75 7.78Q71.74 7.72 71.74 7.67L71.74 7.67L71.74 7.67Q71.73 7.62 71.73 7.56L71.73 7.56L71.73 7.56Q71.73 7.53 71.73 7.50L71.73 7.50L71.73 7.50Q71.72 7.46 71.72 7.42L71.72 7.42L71.72 7.42Q71.75 6.82 71.68 6.30L71.68 6.30L71.68 6.30Q71.67 6.27 71.67 6.19L71.67 6.19L71.67 6.19Q71.67 6.11 71.69 5.99L71.69 5.99L71.69 5.99Q71.70 5.84 71.73 5.67L71.73 5.67L71.73 5.67Q71.75 5.42 71.95 5.42L71.95 5.42L71.95 5.42Q72.17 5.42 72.17 5.68L72.17 5.68L72.17 5.68Q72.17 5.89 72.18 6.11L72.18 6.11L72.18 6.11Q72.19 6.32 72.19 6.54L72.19 6.54L72.19 6.54Q72.20 6.85 72.18 7.16L72.18 7.16L72.18 7.16Q72.16 7.48 72.17 7.79L72.17 7.79L72.17 7.79Q72.19 8.00 72.18 8.21L72.18 8.21L72.18 8.21Q72.18 8.42 72.17 8.62L72.17 8.62L72.17 8.62Q72.17 8.74 72.18 8.85L72.18 8.85L72.18 8.85Q72.18 8.96 72.18 9.06L72.18 9.06L72.18 9.34L72.18 9.34Q72.17 9.38 72.17 9.42L72.17 9.42L72.17 9.42Q72.17 9.46 72.17 9.50L72.17 9.50L72.17 9.50Q72.16 9.50 72.16 9.51L72.16 9.51L72.16 9.51Q72.16 9.52 72.15 9.52L72.15 9.52L72.15 9.52Q72.08 9.62 71.92 9.62L71.92 9.62L71.92 9.62Q71.74 9.63 71.64 9.50L71.64 9.50L71.64 9.50Q71.54 9.37 71.45 9.22L71.45 9.22L71.45 9.22Q71.37 9.07 71.26 8.93L71.26 8.93L71.26 8.93Q71.14 8.76 70.99 8.58L70.99 8.58L70.99 8.58Q70.85 8.39 70.67 8.18L70.67 8.18L70.67 8.18Q70.60 8.10 70.48 7.90L70.48 7.90L70.24 7.52L70.24 7.52Q70.15 7.38 70.06 7.24L70.06 7.24L70.06 7.24Q69.97 7.10 69.88 6.97L69.88 6.97L69.88 6.97Q69.84 6.92 69.79 6.87L69.79 6.87L69.79 6.87Q69.74 6.81 69.69 6.77L69.69 6.77L69.69 6.77Q69.63 6.73 69.56 6.71L69.56 6.71L69.56 6.71Q69.49 6.69 69.43 6.71L69.43 6.71L69.43 6.71Q69.24 6.76 69.25 7.08L69.25 7.08L69.25 7.08Q69.26 7.31 69.27 7.52L69.27 7.52L69.27 7.52Q69.27 7.72 69.28 7.90L69.28 7.90L69.28 7.90Q69.30 8.05 69.28 8.19L69.28 8.19L69.28 8.19Q69.26 8.33 69.26 8.47L69.26 8.47L69.26 9.00L69.26 9.00Q69.26 9.17 69.25 9.31L69.25 9.31L69.25 9.31Q69.24 9.45 69.23 9.56ZM76.98 5.86L76.98 5.87L77 5.89L77 5.89Q77.08 5.97 77.14 6.08L77.14 6.08L77.14 6.08Q77.21 6.19 77.26 6.33L77.26 6.33L77.26 6.33Q77.30 6.43 77.35 6.51L77.35 6.51L77.35 6.51Q77.40 6.60 77.44 6.69L77.44 6.69L77.44 6.69Q77.49 6.84 77.52 6.97L77.52 6.97L77.52 6.97Q77.55 7.09 77.55 7.20L77.55 7.20L77.55 7.20Q77.56 7.31 77.56 7.43L77.56 7.43L77.56 7.43Q77.55 7.56 77.53 7.72L77.53 7.72L77.53 7.72Q77.52 7.85 77.52 7.99L77.52 7.99L77.52 7.99Q77.52 8.12 77.49 8.26L77.49 8.26L77.49 8.26Q77.46 8.44 77.39 8.61L77.39 8.61L77.39 8.61Q77.31 8.78 77.22 8.94L77.22 8.94L77.22 8.94Q77.05 9.21 76.74 9.44L76.74 9.44L76.69 9.47L76.69 9.47Q76.61 9.52 76.56 9.53L76.56 9.53L76.56 9.53Q76.48 9.56 76.41 9.59L76.41 9.59L76.41 9.59Q76.34 9.61 76.28 9.63L76.28 9.63L76.28 9.63Q75.93 9.71 75.55 9.70L75.55 9.70L75.55 9.70Q75.17 9.69 74.82 9.69L74.82 9.69L74.82 9.69Q74.69 9.69 74.50 9.70L74.50 9.70L74.50 9.70Q74.32 9.70 74.21 9.63L74.21 9.63L74.21 9.63Q74.12 9.58 74.09 9.45L74.09 9.45L74.09 9.45Q74.08 9.42 74.08 9.33L74.08 9.33L74.08 9.33Q74.08 9.00 74.09 8.68L74.09 8.68L74.09 8.68Q74.09 8.35 74.11 8.03L74.11 8.03L74.11 8.03Q74.12 7.86 74.10 7.69L74.10 7.69L74.10 7.69Q74.08 7.51 74.08 7.34L74.08 7.34L74.08 6.63L74.08 6.06L74.08 6.06Q74.08 5.65 74.18 5.52L74.18 5.52L74.18 5.52Q74.29 5.41 74.52 5.41L74.52 5.41L74.52 5.41Q74.63 5.42 74.73 5.42L74.73 5.42L74.73 5.42Q74.83 5.41 74.91 5.41L74.91 5.41L74.91 5.41Q75.17 5.41 75.44 5.42L75.44 5.42L75.44 5.42Q75.71 5.43 76.00 5.45L76.00 5.45L76.00 5.45Q76.56 5.48 76.98 5.86L76.98 5.86ZM76.09 5.89L76.08 5.89L76.08 5.89L76.08 5.89Q75.98 5.87 75.84 5.87L75.84 5.87L75.84 5.87Q75.70 5.87 75.52 5.89L75.52 5.89L75.52 5.89Q75.18 5.91 75.00 5.88L75.00 5.88L75.00 5.88Q74.70 5.83 74.63 5.88L74.63 5.88L74.63 5.88Q74.53 5.95 74.53 6.17L74.53 6.17L74.53 6.17Q74.53 6.39 74.53 6.60L74.53 6.60L74.53 6.60Q74.54 6.82 74.53 7.02L74.53 7.02L74.53 7.02Q74.49 7.53 74.50 8.04L74.50 8.04L74.50 8.04Q74.51 8.54 74.51 9.04L74.51 9.04L74.51 9.04Q74.51 9.15 74.59 9.22L74.59 9.22L74.59 9.22Q74.68 9.30 74.92 9.26L74.92 9.26L74.92 9.26Q74.92 9.26 74.93 9.26L74.93 9.26L74.93 9.26Q74.94 9.26 74.95 9.26L74.95 9.26L74.95 9.26Q75.09 9.25 75.21 9.25L75.21 9.25L75.21 9.25Q75.33 9.26 75.43 9.26L75.43 9.26L75.43 9.26Q75.84 9.29 76.22 9.22L76.22 9.22L76.22 9.22Q76.60 9.14 76.82 8.72L76.82 8.72L76.82 8.72Q76.91 8.54 76.98 8.37L76.98 8.37L76.98 8.37Q77.05 8.20 77.10 8.02L77.10 8.02L77.10 8.02Q77.14 7.85 77.15 7.66L77.15 7.66L77.15 7.66Q77.16 7.48 77.14 7.26L77.14 7.26L77.14 7.26Q77.10 6.84 76.86 6.42L76.86 6.42L76.86 6.42Q76.75 6.22 76.55 6.09L76.55 6.09L76.55 6.09Q76.36 5.96 76.09 5.89L76.09 5.89ZM84.76 5.46L84.76 5.46L84.76 5.46Q85.05 5.45 84.89 5.76L84.89 5.76L84.89 5.76Q84.85 5.82 84.79 5.91L84.79 5.91L84.79 5.91Q84.73 6.00 84.64 6.12L84.64 6.12L84.64 6.12Q84.44 6.38 84.33 6.60L84.33 6.60L84.33 6.60Q84.23 6.80 84.10 7.01L84.10 7.01L84.10 7.01Q83.97 7.21 83.81 7.42L83.81 7.42L83.81 7.43L83.81 7.43Q83.73 7.55 83.69 7.67L83.69 7.67L83.69 7.67Q83.65 7.78 83.64 7.88L83.64 7.88L83.64 7.88Q83.62 8.00 83.64 8.12L83.64 8.12L83.64 8.12Q83.66 8.24 83.66 8.35L83.66 8.35L83.66 8.35Q83.66 8.52 83.65 8.67L83.65 8.67L83.65 8.67Q83.64 8.83 83.66 8.99L83.66 8.99L83.66 8.99Q83.67 9.05 83.67 9.13L83.67 9.13L83.67 9.13Q83.68 9.21 83.69 9.32L83.69 9.32L83.69 9.32Q83.70 9.54 83.62 9.64L83.62 9.64L83.62 9.64Q83.57 9.69 83.47 9.70L83.47 9.70L83.47 9.70Q83.25 9.72 83.23 9.38L83.23 9.38L83.23 9.38Q83.21 9.07 83.24 8.75L83.24 8.75L83.24 8.75Q83.27 8.43 83.29 8.11L83.29 8.11L83.29 8.11Q83.31 7.85 83.20 7.68L83.20 7.68L83.20 7.68Q83.15 7.61 83.09 7.51L83.09 7.51L83.09 7.51Q83.04 7.42 82.97 7.31L82.97 7.31L82.97 7.31Q82.90 7.19 82.83 7.07L82.83 7.07L82.83 7.07Q82.76 6.95 82.68 6.83L82.68 6.83L82.68 6.83Q82.60 6.70 82.54 6.60L82.54 6.60L82.54 6.60Q82.49 6.50 82.46 6.43L82.46 6.43L82.46 6.43Q82.40 6.34 82.37 6.27L82.37 6.27L82.37 6.27Q82.33 6.20 82.30 6.17L82.30 6.17L82.30 6.17Q82.28 6.13 82.24 6.08L82.24 6.08L82.24 6.08Q82.20 6.02 82.14 5.95L82.14 5.95L82.14 5.95Q81.97 5.74 81.97 5.63L81.97 5.63L81.97 5.63Q81.96 5.57 82.00 5.50L82.00 5.50L82.00 5.50Q82.19 5.28 82.36 5.53L82.36 5.53L82.36 5.53Q82.50 5.74 82.61 5.96L82.61 5.96L82.61 5.96Q82.72 6.19 82.84 6.40L82.84 6.40L82.84 6.40Q82.94 6.56 83.01 6.66L83.01 6.66L83.01 6.66Q83.08 6.77 83.15 6.83L83.15 6.83L83.15 6.83Q83.32 7.01 83.50 6.97L83.50 6.97L83.50 6.97Q83.67 6.94 83.82 6.72L83.82 6.72L83.82 6.72Q83.88 6.64 83.93 6.55L83.93 6.55L83.93 6.55Q83.99 6.46 84.05 6.37L84.05 6.37L84.05 6.37Q84.10 6.30 84.14 6.22L84.14 6.22L84.14 6.22Q84.18 6.13 84.22 6.04L84.22 6.04L84.22 6.04Q84.26 5.95 84.30 5.87L84.30 5.87L84.30 5.87Q84.34 5.78 84.40 5.69L84.40 5.69L84.40 5.69Q84.55 5.48 84.76 5.46ZM86.58 9.29L86.58 9.29L86.58 9.29Q86.58 8.87 86.58 8.46L86.58 8.46L86.58 8.46Q86.58 8.04 86.58 7.62L86.58 7.62L86.58 7.38L86.58 7.38Q86.58 7.20 86.57 7.01L86.57 7.01L86.57 7.01Q86.56 6.82 86.58 6.64L86.58 6.64L86.58 6.64Q86.58 6.43 86.58 6.23L86.58 6.23L86.58 6.23Q86.58 6.03 86.59 5.82L86.59 5.82L86.59 5.82Q86.59 5.58 86.71 5.48L86.71 5.48L86.71 5.48Q86.80 5.41 87.02 5.41L87.02 5.41L87.02 5.41Q87.14 5.41 87.22 5.40L87.22 5.40L87.22 5.40Q87.31 5.40 87.37 5.40L87.37 5.40L87.37 5.40Q87.64 5.39 87.90 5.40L87.90 5.40L87.90 5.40Q88.17 5.41 88.44 5.41L88.44 5.41L88.44 5.41Q88.58 5.40 88.72 5.40L88.72 5.40L88.72 5.40Q88.87 5.39 89.00 5.41L89.00 5.41L89.35 5.43L89.35 5.43Q89.41 5.43 89.46 5.43L89.46 5.43L89.46 5.43Q89.50 5.43 89.54 5.45L89.54 5.45L89.54 5.45Q89.68 5.52 89.67 5.66L89.67 5.66L89.67 5.66Q89.67 5.72 89.63 5.76L89.63 5.76L89.63 5.76Q89.58 5.80 89.53 5.82L89.53 5.82L89.53 5.82Q89.48 5.84 89.43 5.84L89.43 5.84L89.43 5.84Q89.37 5.85 89.33 5.85L89.33 5.85L89.33 5.85Q88.92 5.85 88.50 5.83L88.50 5.83L88.50 5.83Q88.46 5.82 88.40 5.82L88.40 5.82L88.40 5.82Q88.34 5.82 88.27 5.82L88.27 5.82L87.87 5.82L87.87 5.82Q87.71 5.82 87.59 5.83L87.59 5.83L87.59 5.83Q87.47 5.83 87.38 5.83L87.38 5.83L87.38 5.83Q87.27 5.84 87.19 5.86L87.19 5.86L87.19 5.86Q87.12 5.89 87.08 5.94L87.08 5.94L87.08 5.94Q87.03 6.02 87.04 6.15L87.04 6.15L87.04 6.15Q87.04 6.20 87.04 6.24L87.04 6.24L87.04 6.24Q87.04 6.28 87.04 6.32L87.04 6.32L87.04 6.32Q87.02 6.40 87.01 6.49L87.01 6.49L87.01 6.49Q87.01 6.58 87.01 6.69L87.01 6.69L87.01 6.69Q87.01 6.88 87.17 7.01L87.17 7.01L87.17 7.01Q87.29 7.12 87.61 7.10L87.61 7.10L87.61 7.10Q87.75 7.10 87.89 7.08L87.89 7.08L87.89 7.08Q88.03 7.06 88.18 7.07L88.18 7.07L88.18 7.07Q88.24 7.07 88.34 7.07L88.34 7.07L88.34 7.07Q88.44 7.08 88.57 7.07L88.57 7.07L88.57 7.07Q88.85 7.06 88.94 7.16L88.94 7.16L88.94 7.16Q88.98 7.21 88.97 7.32L88.97 7.32L88.97 7.32Q88.95 7.44 88.78 7.47L88.78 7.47L88.78 7.47Q88.62 7.50 88.53 7.50L88.53 7.50L88.53 7.50Q88.40 7.51 88.28 7.50L88.28 7.50L88.28 7.50Q88.16 7.50 88.04 7.51L88.04 7.51L88.04 7.51Q87.89 7.52 87.73 7.51L87.73 7.51L87.73 7.51Q87.58 7.51 87.40 7.49L87.40 7.49L87.40 7.49Q87.38 7.49 87.36 7.49L87.36 7.49L87.36 7.49Q87.33 7.49 87.31 7.49L87.31 7.49L87.30 7.49L87.30 7.49Q87.23 7.47 87.15 7.52L87.15 7.52L87.15 7.52Q87.03 7.59 87.01 7.78L87.01 7.78L87.01 7.78Q87.00 7.96 87.01 8.09L87.01 8.09L87.01 8.09Q87.02 8.16 87.02 8.22L87.02 8.22L87.02 8.22Q87.03 8.29 87.02 8.33L87.02 8.33L87.02 8.33Q87.01 8.44 87.00 8.53L87.00 8.53L87.00 8.53Q86.99 8.63 86.97 8.74L86.97 8.74L86.97 8.74Q86.95 9.00 87.04 9.13L87.04 9.13L87.04 9.13Q87.16 9.28 87.45 9.28L87.45 9.28L87.45 9.28Q87.67 9.28 87.90 9.27L87.90 9.27L87.90 9.27Q88.14 9.26 88.37 9.25L88.37 9.25L88.37 9.25Q88.58 9.24 88.80 9.26L88.80 9.26L88.80 9.26Q89.02 9.28 89.24 9.28L89.24 9.28L89.24 9.28Q89.33 9.28 89.46 9.28L89.46 9.28L89.46 9.28Q89.60 9.28 89.67 9.32L89.67 9.32L89.67 9.32Q89.74 9.36 89.75 9.44L89.75 9.44L89.75 9.44Q89.82 9.69 89.54 9.70L89.54 9.70L89.54 9.70Q89.09 9.72 88.65 9.71L88.65 9.71L88.65 9.71Q88.22 9.71 87.78 9.71L87.78 9.71L87.78 9.71Q87.75 9.71 87.73 9.72L87.73 9.72L87.73 9.72Q87.71 9.72 87.68 9.72L87.68 9.72L87.68 9.72Q87.53 9.72 87.41 9.72L87.41 9.72L87.41 9.72Q87.30 9.72 87.23 9.71L87.23 9.71L87.23 9.71Q87.18 9.71 87.11 9.71L87.11 9.71L87.11 9.71Q87.05 9.71 86.97 9.70L86.97 9.70L86.97 9.70Q86.90 9.69 86.85 9.69L86.85 9.69L86.85 9.69Q86.81 9.68 86.79 9.67L86.79 9.67L86.79 9.67Q86.58 9.61 86.58 9.29ZM95.16 9.47L95.16 9.47L95.16 9.47Q95.16 9.65 95.02 9.69L95.02 9.69L95.02 9.69Q94.90 9.75 94.80 9.61L94.80 9.61L94.80 9.61Q94.75 9.54 94.72 9.49L94.72 9.49L94.72 9.49Q94.69 9.43 94.67 9.39L94.67 9.39L94.67 9.39Q94.58 9.18 94.50 9.03L94.50 9.03L94.50 9.03Q94.42 8.87 94.35 8.78L94.35 8.78L94.35 8.78Q94.19 8.55 93.99 8.49L93.99 8.49L93.99 8.49Q93.82 8.44 93.44 8.48L93.44 8.48L93.44 8.48Q93.22 8.50 93.03 8.51L93.03 8.51L93.03 8.51Q92.83 8.52 92.65 8.50L92.65 8.50L92.65 8.50Q92.26 8.48 92.07 8.76L92.07 8.76L92.05 8.78L92.05 8.79L92.05 8.79Q91.98 8.93 91.93 9.06L91.93 9.06L91.93 9.06Q91.89 9.19 91.83 9.32L91.83 9.32L91.68 9.54L91.68 9.54Q91.59 9.69 91.49 9.70L91.49 9.70L91.49 9.70Q91.44 9.72 91.35 9.65L91.35 9.65L91.35 9.65Q91.31 9.60 91.30 9.55L91.30 9.55L91.30 9.55Q91.29 9.49 91.30 9.43L91.30 9.43L91.30 9.43Q91.31 9.37 91.33 9.30L91.33 9.30L91.33 9.30Q91.36 9.24 91.38 9.19L91.38 9.19L91.54 8.85L91.54 8.85Q91.78 8.35 91.99 7.85L91.99 7.85L91.99 7.85Q92.20 7.34 92.43 6.83L92.43 6.83L92.43 6.83Q92.47 6.74 92.50 6.66L92.50 6.66L92.50 6.66Q92.53 6.58 92.57 6.51L92.57 6.51L92.57 6.51Q92.64 6.32 92.72 6.14L92.72 6.14L92.72 6.14Q92.79 5.95 92.89 5.76L92.89 5.76L92.99 5.61L92.99 5.61Q93.06 5.48 93.13 5.48L93.13 5.48L93.13 5.48Q93.20 5.46 93.31 5.59L93.31 5.59L93.31 5.59Q93.43 5.73 93.53 5.91L93.53 5.91L93.53 5.91Q93.64 6.10 93.71 6.26L93.71 6.26L93.71 6.26Q93.95 6.77 94.16 7.28L94.16 7.28L94.16 7.28Q94.37 7.79 94.61 8.28L94.61 8.28L94.61 8.28Q94.68 8.43 94.76 8.58L94.76 8.58L94.76 8.58Q94.83 8.74 94.91 8.88L94.91 8.88L94.91 8.88Q94.95 8.98 95.00 9.08L95.00 9.08L95.00 9.08Q95.04 9.17 95.08 9.27L95.08 9.27L95.08 9.27Q95.12 9.34 95.14 9.39L95.14 9.39L95.14 9.39Q95.16 9.44 95.16 9.47ZM93.81 7.56L93.81 7.56L93.81 7.56Q93.74 7.40 93.68 7.22L93.68 7.22L93.68 7.22Q93.61 7.05 93.52 6.88L93.52 6.88L93.52 6.88Q93.36 6.57 93.16 6.58L93.16 6.58L93.16 6.58Q93.08 6.58 93.03 6.62L93.03 6.62L93.03 6.62Q92.97 6.67 92.93 6.72L92.93 6.72L92.93 6.72Q92.89 6.78 92.85 6.85L92.85 6.85L92.85 6.85Q92.82 6.92 92.80 6.98L92.80 6.98L92.80 6.98Q92.72 7.18 92.65 7.40L92.65 7.40L92.65 7.40Q92.59 7.62 92.52 7.83L92.52 7.83L92.52 7.83Q92.48 7.98 92.54 8.05L92.54 8.05L92.54 8.05Q92.58 8.12 92.75 8.13L92.75 8.13L92.75 8.13Q92.90 8.14 93.02 8.15L93.02 8.15L93.02 8.15Q93.13 8.15 93.21 8.14L93.21 8.14L93.21 8.14Q93.36 8.14 93.60 8.10L93.60 8.10L93.60 8.10Q93.86 8.06 93.91 7.88L93.91 7.88L93.91 7.88Q93.93 7.77 93.88 7.69L93.88 7.69L93.88 7.69Q93.86 7.66 93.84 7.63L93.84 7.63L93.84 7.63Q93.82 7.59 93.81 7.56ZM99.57 5.67L99.57 5.67L99.57 5.67Q99.72 5.82 99.80 5.99L99.80 5.99L99.80 5.99Q99.89 6.16 99.98 6.34L99.98 6.34L99.98 6.34Q100.07 6.54 100.03 6.74L100.03 6.74L100.03 6.74Q100.00 6.94 99.81 7.13L99.81 7.13L99.81 7.13Q99.67 7.28 99.33 7.37L99.33 7.37L99.33 7.37Q99.21 7.40 99.07 7.44L99.07 7.44L99.07 7.44Q98.93 7.48 98.88 7.60L98.88 7.60L98.88 7.60Q98.83 7.72 98.90 7.84L98.90 7.84L98.90 7.84Q98.96 7.97 99.00 8.05L99.00 8.05L99.00 8.05Q99.05 8.13 99.07 8.18L99.07 8.18L99.07 8.18Q99.11 8.24 99.16 8.33L99.16 8.33L99.16 8.33Q99.22 8.42 99.29 8.52L99.29 8.52L99.29 8.52Q99.45 8.74 99.62 8.93L99.62 8.93L99.62 8.93Q99.80 9.13 99.98 9.30L99.98 9.30L100.01 9.34L100.01 9.34Q100.16 9.49 100.02 9.63L100.02 9.63L100.02 9.63Q99.86 9.79 99.72 9.64L99.72 9.64L99.72 9.64Q99.60 9.52 99.51 9.43L99.51 9.43L99.51 9.43Q99.42 9.34 99.35 9.26L99.35 9.26L99.35 9.26Q99.18 9.05 99.04 8.83L99.04 8.83L99.04 8.83Q98.94 8.67 98.83 8.53L98.83 8.53L98.83 8.53Q98.72 8.39 98.63 8.23L98.63 8.23L98.63 8.23Q98.36 7.74 97.95 7.58L97.95 7.58L97.95 7.58Q97.52 7.42 97.32 7.70L97.32 7.70L97.32 7.70Q97.26 7.80 97.26 7.92L97.26 7.92L97.26 9.40L97.26 9.49L97.26 9.49Q97.26 9.69 97.05 9.70L97.05 9.70L97.05 9.70Q96.84 9.69 96.84 9.44L96.84 9.44L96.84 9.44Q96.84 9.28 96.85 9.12L96.85 9.12L96.85 9.12Q96.86 8.95 96.87 8.76L96.87 8.76L96.87 8.76Q96.87 8.63 96.86 8.49L96.86 8.49L96.86 8.49Q96.85 8.35 96.85 8.22L96.85 8.22L96.85 8.22Q96.85 8.09 96.86 7.96L96.86 7.96L96.86 7.96Q96.87 7.83 96.87 7.70L96.87 7.70L96.87 7.70Q96.87 7.40 96.84 7.07L96.84 7.07L96.84 7.07Q96.84 6.84 96.85 6.61L96.85 6.61L96.85 6.61Q96.87 6.38 96.86 6.14L96.86 6.14L96.86 6.14Q96.85 6.02 96.85 5.86L96.85 5.86L96.85 5.86Q96.85 5.71 96.89 5.58L96.89 5.58L96.89 5.58Q97.02 5.42 97.47 5.42L97.47 5.42L97.69 5.42L97.69 5.42Q97.93 5.42 98.18 5.44L98.18 5.44L98.18 5.44Q98.43 5.46 98.68 5.45L98.68 5.45L98.68 5.45Q99.24 5.42 99.57 5.67ZM97.65 7.15L97.65 7.15L97.65 7.15Q97.91 7.16 98.11 7.16L98.11 7.16L98.11 7.16Q98.31 7.16 98.44 7.14L98.44 7.14L98.44 7.14Q98.57 7.13 98.73 7.11L98.73 7.11L98.73 7.11Q98.90 7.09 99.09 7.05L99.09 7.05L99.09 7.05Q99.48 6.97 99.59 6.69L99.59 6.69L99.59 6.69Q99.64 6.59 99.63 6.47L99.63 6.47L99.63 6.47Q99.61 6.34 99.55 6.24L99.55 6.24L99.55 6.24Q99.48 6.14 99.38 6.07L99.38 6.07L99.38 6.07Q99.29 6.00 99.17 5.94L99.17 5.94L99.17 5.94Q99.05 5.89 98.94 5.87L98.94 5.87L98.94 5.87Q98.66 5.82 98.37 5.83L98.37 5.83L98.37 5.83Q98.09 5.84 97.80 5.82L97.80 5.82L97.80 5.82Q97.75 5.82 97.70 5.82L97.70 5.82L97.70 5.82Q97.64 5.82 97.59 5.82L97.59 5.82L97.59 5.82Q97.45 5.81 97.37 5.89L97.37 5.89L97.37 5.89Q97.31 5.96 97.32 6.08L97.32 6.08L97.32 6.08Q97.33 6.12 97.33 6.23L97.33 6.23L97.33 6.23Q97.32 6.33 97.31 6.43L97.31 6.43L97.31 6.43Q97.29 6.52 97.28 6.62L97.28 6.62L97.28 6.62Q97.24 6.88 97.34 7.01L97.34 7.01L97.34 7.01Q97.43 7.14 97.65 7.15ZM104.83 9.08L104.83 9.08L104.83 9.08Q104.71 9.23 104.61 9.34L104.61 9.34L104.61 9.34Q104.50 9.45 104.38 9.53L104.38 9.53L104.38 9.53Q104.27 9.60 104.13 9.66L104.13 9.66L104.13 9.66Q103.99 9.71 103.81 9.73L103.81 9.73L103.81 9.73Q103.72 9.74 103.63 9.74L103.63 9.74L103.63 9.74Q103.53 9.75 103.42 9.73L103.42 9.73L103.42 9.73Q103.27 9.72 103.13 9.72L103.13 9.72L103.13 9.72Q102.98 9.72 102.83 9.69L102.83 9.69L102.83 9.69Q102.50 9.61 102.29 9.46L102.29 9.46L102.29 9.46Q102.07 9.31 101.95 9.07L101.95 9.07L101.95 9.07Q101.80 8.74 102.12 8.73L102.12 8.73L102.12 8.73Q102.18 8.73 102.25 8.81L102.25 8.81L102.25 8.81Q102.32 8.89 102.36 8.93L102.36 8.93L102.36 8.93Q102.50 9.07 102.53 9.08L102.53 9.08L102.53 9.08L102.53 9.09L102.53 9.09Q102.87 9.32 103.42 9.32L103.42 9.32L103.43 9.32L103.43 9.32L103.43 9.32Q103.67 9.32 104.03 9.23L104.03 9.23L104.03 9.23Q104.38 9.14 104.50 8.87L104.50 8.87L104.50 8.87Q104.56 8.70 104.50 8.51L104.50 8.51L104.50 8.50L104.50 8.50Q104.33 8.14 103.84 8.02L103.84 8.02L103.00 7.80L103.00 7.80Q102.82 7.76 102.57 7.63L102.57 7.63L102.57 7.63Q102.44 7.56 102.34 7.51L102.34 7.51L102.34 7.51Q102.25 7.45 102.18 7.40L102.18 7.40L102.18 7.40Q101.90 7.19 101.86 6.99L101.86 6.99L101.86 6.99Q101.85 6.95 101.85 6.89L101.85 6.89L101.85 6.89Q101.85 6.83 101.85 6.74L101.85 6.74L101.85 6.74Q101.85 6.64 101.86 6.55L101.86 6.55L101.86 6.55Q101.88 6.46 101.89 6.36L101.89 6.36L101.89 6.36Q101.93 6.04 102.16 5.80L102.16 5.80L102.16 5.80Q102.26 5.69 102.41 5.62L102.41 5.62L102.41 5.62Q102.55 5.55 102.69 5.49L102.69 5.49L102.69 5.49Q102.88 5.40 103.09 5.40L103.09 5.40L103.09 5.40Q103.30 5.39 103.50 5.40L103.50 5.40L103.50 5.40Q104.17 5.42 104.55 5.87L104.55 5.87L104.55 5.87Q104.72 6.08 104.68 6.22L104.68 6.22L104.63 6.26L104.63 6.26Q104.52 6.32 104.37 6.19L104.37 6.19L104.37 6.19Q104.33 6.16 104.30 6.13L104.30 6.13L104.30 6.13Q104.26 6.09 104.23 6.06L104.23 6.06L104.23 6.06Q104.19 6.02 104.14 5.98L104.14 5.98L104.14 5.98Q104.08 5.95 104.02 5.91L104.02 5.91L104.00 5.90L103.98 5.90L103.98 5.90Q103.73 5.82 103.47 5.81L103.47 5.81L103.47 5.81Q103.20 5.80 102.92 5.86L102.92 5.86L102.92 5.86Q102.59 5.93 102.41 6.14L102.41 6.14L102.41 6.14Q102.23 6.34 102.23 6.67L102.23 6.67L102.23 6.69L102.24 6.70L102.24 6.70Q102.27 7.12 102.89 7.30L102.89 7.30L103.09 7.36L103.60 7.53L103.60 7.53Q103.71 7.57 103.83 7.62L103.83 7.62L103.83 7.62Q103.95 7.67 104.08 7.72L104.08 7.72L104.08 7.72Q104.27 7.81 104.43 7.90L104.43 7.90L104.43 7.90Q104.60 7.98 104.73 8.07L104.73 8.07L104.73 8.07Q104.83 8.13 104.88 8.22L104.88 8.22L104.88 8.22Q104.93 8.31 104.95 8.41L104.95 8.41L104.95 8.41Q104.97 8.51 104.96 8.62L104.96 8.62L104.96 8.62Q104.96 8.73 104.94 8.82L104.94 8.82L104.94 8.82Q104.92 8.89 104.89 8.96L104.89 8.96L104.89 8.96Q104.86 9.03 104.83 9.08ZM106.24 10.18L106.24 10.18L106.24 10.18Q106.33 10.12 106.41 10.07L106.41 10.07L106.41 10.07Q106.49 10.01 106.55 9.95L106.55 9.95L106.55 9.95Q106.67 9.79 106.66 9.56L106.66 9.56L106.66 9.56Q106.66 9.50 106.65 9.42L106.65 9.42L106.65 9.42Q106.63 9.35 106.63 9.28L106.63 9.28L106.63 9.28Q106.61 9.15 106.63 9.11L106.63 9.11L106.63 9.11Q106.63 9.08 106.68 9.08L106.68 9.08L106.68 9.08Q106.89 9.07 106.92 9.35L106.92 9.35L106.92 9.35Q106.93 9.37 106.93 9.45L106.93 9.45L106.93 9.45Q106.93 9.57 106.91 9.69L106.91 9.69L106.91 9.69Q106.89 9.81 106.84 9.91L106.84 9.91L106.83 9.93L106.83 9.95L106.83 9.95Q106.83 9.98 106.79 10.02L106.79 10.02L106.79 10.02Q106.76 10.07 106.72 10.12L106.72 10.12L106.72 10.12Q106.67 10.17 106.63 10.21L106.63 10.21L106.63 10.21Q106.59 10.25 106.57 10.27L106.57 10.27L106.57 10.27Q106.43 10.38 106.31 10.36L106.31 10.36L106.31 10.36Q106.27 10.36 106.24 10.32L106.24 10.32L106.24 10.32Q106.19 10.22 106.24 10.18ZM114.39 9.08L114.39 9.08L114.39 9.08Q114.28 9.23 114.17 9.34L114.17 9.34L114.17 9.34Q114.06 9.45 113.95 9.53L113.95 9.53L113.95 9.53Q113.83 9.60 113.69 9.66L113.69 9.66L113.69 9.66Q113.55 9.71 113.37 9.73L113.37 9.73L113.37 9.73Q113.29 9.74 113.19 9.74L113.19 9.74L113.19 9.74Q113.09 9.75 112.98 9.73L112.98 9.73L112.98 9.73Q112.83 9.72 112.69 9.72L112.69 9.72L112.69 9.72Q112.55 9.72 112.40 9.69L112.40 9.69L112.40 9.69Q112.07 9.61 111.85 9.46L111.85 9.46L111.85 9.46Q111.63 9.31 111.51 9.07L111.51 9.07L111.51 9.07Q111.36 8.74 111.69 8.73L111.69 8.73L111.69 8.73Q111.74 8.73 111.81 8.81L111.81 8.81L111.81 8.81Q111.88 8.89 111.92 8.93L111.92 8.93L111.92 8.93Q112.07 9.07 112.09 9.08L112.09 9.08L112.10 9.08L112.10 9.09L112.10 9.09Q112.43 9.32 112.98 9.32L112.98 9.32L112.99 9.32L113.00 9.32L113.00 9.32Q113.23 9.32 113.59 9.23L113.59 9.23L113.59 9.23Q113.95 9.14 114.06 8.87L114.06 8.87L114.06 8.87Q114.13 8.70 114.06 8.51L114.06 8.51L114.06 8.50L114.06 8.50Q113.89 8.14 113.40 8.02L113.40 8.02L112.56 7.80L112.56 7.80Q112.38 7.76 112.13 7.63L112.13 7.63L112.13 7.63Q112 7.56 111.90 7.51L111.90 7.51L111.90 7.51Q111.81 7.45 111.75 7.40L111.75 7.40L111.75 7.40Q111.47 7.19 111.42 6.99L111.42 6.99L111.42 6.99Q111.41 6.95 111.41 6.89L111.41 6.89L111.41 6.89Q111.41 6.83 111.41 6.74L111.41 6.74L111.41 6.74Q111.41 6.64 111.43 6.55L111.43 6.55L111.43 6.55Q111.44 6.46 111.45 6.36L111.45 6.36L111.45 6.36Q111.49 6.04 111.72 5.80L111.72 5.80L111.72 5.80Q111.82 5.69 111.97 5.62L111.97 5.62L111.97 5.62Q112.12 5.55 112.25 5.49L112.25 5.49L112.25 5.49Q112.44 5.40 112.65 5.40L112.65 5.40L112.65 5.40Q112.86 5.39 113.07 5.40L113.07 5.40L113.07 5.40Q113.74 5.42 114.11 5.87L114.11 5.87L114.11 5.87Q114.28 6.08 114.24 6.22L114.24 6.22L114.19 6.26L114.19 6.26Q114.08 6.32 113.93 6.19L113.93 6.19L113.93 6.19Q113.89 6.16 113.86 6.13L113.86 6.13L113.86 6.13Q113.83 6.09 113.79 6.06L113.79 6.06L113.79 6.06Q113.76 6.02 113.70 5.98L113.70 5.98L113.70 5.98Q113.65 5.95 113.58 5.91L113.58 5.91L113.57 5.90L113.54 5.90L113.54 5.90Q113.29 5.82 113.03 5.81L113.03 5.81L113.03 5.81Q112.77 5.80 112.49 5.86L112.49 5.86L112.49 5.86Q112.15 5.93 111.97 6.14L111.97 6.14L111.97 6.14Q111.79 6.34 111.79 6.67L111.79 6.67L111.79 6.69L111.80 6.70L111.80 6.70Q111.83 7.12 112.46 7.30L112.46 7.30L112.66 7.36L113.16 7.53L113.16 7.53Q113.28 7.57 113.39 7.62L113.39 7.62L113.39 7.62Q113.51 7.67 113.64 7.72L113.64 7.72L113.64 7.72Q113.83 7.81 114.00 7.90L114.00 7.90L114.00 7.90Q114.16 7.98 114.30 8.07L114.30 8.07L114.30 8.07Q114.39 8.13 114.44 8.22L114.44 8.22L114.44 8.22Q114.50 8.31 114.51 8.41L114.51 8.41L114.51 8.41Q114.53 8.51 114.53 8.62L114.53 8.62L114.53 8.62Q114.52 8.73 114.50 8.82L114.50 8.82L114.50 8.82Q114.49 8.89 114.46 8.96L114.46 8.96L114.46 8.96Q114.43 9.03 114.39 9.08ZM119.52 5.75L119.52 5.75L119.52 5.75Q119.42 5.86 119.21 5.84L119.21 5.84L118.86 5.82L118.86 5.82Q118.76 5.82 118.67 5.81L118.67 5.81L118.67 5.81Q118.57 5.80 118.47 5.80L118.47 5.80L118.47 5.80Q118.26 5.80 118.17 5.89L118.17 5.89L118.17 5.89Q118.09 5.98 118.09 6.19L118.09 6.19L118.09 6.19Q118.09 6.28 118.10 6.37L118.10 6.37L118.10 6.37Q118.11 6.47 118.11 6.56L118.11 6.56L118.11 6.56Q118.12 6.79 118.12 6.96L118.12 6.96L118.12 6.96Q118.13 7.12 118.13 7.24L118.13 7.24L118.13 7.24Q118.13 7.59 118.08 7.94L118.08 7.94L118.08 7.94Q118.06 8.10 118.08 8.26L118.08 8.26L118.08 8.26Q118.10 8.43 118.11 8.59L118.11 8.59L118.11 8.59Q118.12 8.76 118.12 8.89L118.12 8.89L118.12 8.89Q118.13 9.02 118.13 9.11L118.13 9.11L118.13 9.11Q118.13 9.15 118.13 9.20L118.13 9.20L118.13 9.20Q118.13 9.26 118.12 9.35L118.12 9.35L118.12 9.35Q118.10 9.54 118.09 9.58L118.09 9.58L118.09 9.58Q118.00 9.73 117.86 9.69L117.86 9.69L117.86 9.69Q117.68 9.65 117.68 9.43L117.68 9.43L117.68 9.43Q117.67 9.22 117.69 9.01L117.69 9.01L117.69 9.01Q117.71 8.80 117.72 8.60L117.72 8.60L117.72 8.60Q117.74 8.36 117.72 8.11L117.72 8.11L117.72 8.11Q117.69 7.87 117.69 7.62L117.69 7.62L117.69 7.62Q117.69 7.40 117.71 7.17L117.71 7.17L117.71 7.17Q117.73 6.94 117.74 6.71L117.74 6.71L117.74 6.71Q117.74 6.27 117.59 6.08L117.59 6.08L117.59 6.08Q117.52 5.99 117.41 5.94L117.41 5.94L117.41 5.94Q117.30 5.89 117.17 5.87L117.17 5.87L117.17 5.87Q117.04 5.86 116.93 5.85L116.93 5.85L116.93 5.85Q116.82 5.84 116.71 5.84L116.71 5.84L116.71 5.84Q116.63 5.84 116.50 5.84L116.50 5.84L116.50 5.84Q116.38 5.84 116.31 5.80L116.31 5.80L116.31 5.80Q116.25 5.77 116.24 5.67L116.24 5.67L116.24 5.67Q116.22 5.59 116.26 5.54L116.26 5.54L116.26 5.54Q116.31 5.46 116.50 5.43L116.50 5.43L116.50 5.43Q116.52 5.43 116.57 5.43L116.57 5.43L116.57 5.43Q116.86 5.42 117.13 5.45L117.13 5.45L117.13 5.45Q117.40 5.48 117.69 5.46L117.69 5.46L117.69 5.46Q117.80 5.46 117.92 5.44L117.92 5.44L117.92 5.44Q118.03 5.43 118.15 5.43L118.15 5.43L118.15 5.43Q118.38 5.43 118.61 5.43L118.61 5.43L118.61 5.43Q118.84 5.43 119.06 5.42L119.06 5.42L119.06 5.42Q119.18 5.42 119.26 5.43L119.26 5.43L119.26 5.43Q119.35 5.43 119.41 5.46L119.41 5.46L119.41 5.46Q119.62 5.61 119.52 5.75ZM121.46 9.70L121.46 9.70L121.46 9.70Q121.24 9.67 121.24 9.44L121.24 9.44L121.24 9.44Q121.24 9.07 121.24 8.72L121.24 8.72L121.24 8.72Q121.24 8.36 121.24 7.99L121.24 7.99L121.24 7.99Q121.24 7.79 121.26 7.58L121.26 7.58L121.26 7.58Q121.27 7.43 121.27 7.30L121.27 7.30L121.27 7.30Q121.27 7.17 121.26 7.06L121.26 7.06L121.26 7.06Q121.26 6.99 121.25 6.90L121.25 6.90L121.25 6.90Q121.24 6.80 121.24 6.67L121.24 6.67L121.24 6.67Q121.24 6.60 121.24 6.51L121.24 6.51L121.24 6.51Q121.24 6.41 121.25 6.28L121.25 6.28L121.25 6.28Q121.26 6.19 121.26 6.11L121.26 6.11L121.26 6.11Q121.26 6.04 121.26 5.99L121.26 5.99L121.26 5.84L121.26 5.83L121.26 5.78L121.26 5.78Q121.24 5.61 121.27 5.54L121.27 5.54L121.27 5.54Q121.29 5.49 121.36 5.44L121.36 5.44L121.36 5.44Q121.63 5.30 121.69 5.61L121.69 5.61L121.69 5.61Q121.74 5.84 121.75 6.07L121.75 6.07L121.75 6.07Q121.76 6.29 121.74 6.51L121.74 6.51L121.74 6.51L121.74 6.51Q121.72 6.73 121.73 6.94L121.73 6.94L121.73 6.94Q121.74 7.15 121.72 7.36L121.72 7.36L121.72 7.36Q121.70 7.55 121.69 7.68L121.69 7.68L121.69 7.68Q121.67 7.82 121.67 7.92L121.67 7.92L121.67 7.92Q121.65 8.05 121.65 8.20L121.65 8.20L121.65 8.20Q121.65 8.35 121.66 8.51L121.66 8.51L121.66 8.51Q121.67 8.54 121.67 8.59L121.67 8.59L121.67 8.59Q121.67 8.63 121.67 8.70L121.67 8.70L121.67 8.70Q121.67 8.80 121.67 8.91L121.67 8.91L121.67 8.91Q121.67 9.02 121.67 9.13L121.67 9.13L121.67 9.13Q121.67 9.20 121.68 9.27L121.68 9.27L121.68 9.27Q121.68 9.33 121.67 9.40L121.67 9.40L121.67 9.40Q121.67 9.54 121.67 9.55L121.67 9.55L121.67 9.55Q121.64 9.68 121.46 9.70ZM126.25 9.34L126.25 9.34L126.25 9.34Q126.33 9.40 126.33 9.50L126.33 9.50L126.33 9.50Q126.33 9.72 126.06 9.72L126.06 9.72L126.06 9.72Q125.57 9.72 125.08 9.71L125.08 9.71L125.08 9.71Q124.58 9.69 124.09 9.73L124.09 9.73L124.09 9.73Q123.70 9.75 123.62 9.52L123.62 9.52L123.62 9.52Q123.58 9.41 123.58 9.19L123.58 9.19L123.58 9.19Q123.59 9.08 123.59 8.99L123.59 8.99L123.59 8.99Q123.59 8.91 123.59 8.85L123.59 8.85L123.59 8.85Q123.60 8.70 123.61 8.53L123.61 8.53L123.61 8.53Q123.62 8.37 123.61 8.22L123.61 8.22L123.61 8.22Q123.60 7.89 123.59 7.58L123.59 7.58L123.59 7.58Q123.57 7.27 123.58 6.94L123.58 6.94L123.58 6.94Q123.59 6.78 123.59 6.63L123.59 6.63L123.59 6.63Q123.60 6.47 123.60 6.31L123.60 6.31L123.60 6.31Q123.61 6.11 123.60 5.94L123.60 5.94L123.60 5.94Q123.60 5.78 123.59 5.64L123.59 5.64L123.59 5.64Q123.57 5.46 123.76 5.42L123.76 5.42L123.76 5.42Q124.02 5.37 124.04 5.74L124.04 5.74L124.04 5.74Q124.06 5.89 124.07 6.04L124.07 6.04L124.07 6.04Q124.07 6.19 124.09 6.32L124.09 6.32L124.09 6.50L124.06 6.76L124.06 6.76Q124.04 6.87 124.03 6.98L124.03 6.98L124.03 6.98Q124.02 7.09 124.02 7.19L124.02 7.19L124.02 7.19Q124.00 7.45 124.00 7.65L124.00 7.65L124.00 7.65Q124.00 7.84 124.01 7.97L124.01 7.97L124.01 7.97Q124.02 8.13 124.03 8.31L124.03 8.31L124.03 8.31Q124.03 8.49 124.02 8.69L124.02 8.69L124.02 8.69Q124.00 8.99 124.10 9.08L124.10 9.08L124.10 9.08Q124.17 9.17 124.42 9.19L124.42 9.19L124.42 9.19Q124.54 9.21 124.66 9.21L124.66 9.21L124.66 9.21Q124.78 9.22 124.91 9.24L124.91 9.24L124.91 9.24Q125.09 9.26 125.28 9.24L125.28 9.24L125.28 9.24Q125.47 9.22 125.67 9.25L125.67 9.25L125.67 9.25Q125.79 9.26 125.96 9.27L125.96 9.27L125.96 9.27Q126.14 9.28 126.25 9.34ZM130.46 9.34L130.46 9.34L130.46 9.34Q130.55 9.40 130.55 9.50L130.55 9.50L130.55 9.50Q130.55 9.72 130.28 9.72L130.28 9.72L130.28 9.72Q129.79 9.72 129.29 9.71L129.29 9.71L129.29 9.71Q128.80 9.69 128.31 9.73L128.31 9.73L128.31 9.73Q127.92 9.75 127.84 9.52L127.84 9.52L127.84 9.52Q127.80 9.41 127.80 9.19L127.80 9.19L127.80 9.19Q127.80 9.08 127.81 8.99L127.81 8.99L127.81 8.99Q127.81 8.91 127.81 8.85L127.81 8.85L127.81 8.85Q127.82 8.70 127.83 8.53L127.83 8.53L127.83 8.53Q127.84 8.37 127.83 8.22L127.83 8.22L127.83 8.22Q127.82 7.89 127.80 7.58L127.80 7.58L127.80 7.58Q127.79 7.27 127.80 6.94L127.80 6.94L127.80 6.94Q127.80 6.78 127.81 6.63L127.81 6.63L127.81 6.63Q127.82 6.47 127.82 6.31L127.82 6.31L127.82 6.31Q127.83 6.11 127.82 5.94L127.82 5.94L127.82 5.94Q127.82 5.78 127.80 5.64L127.80 5.64L127.80 5.64Q127.79 5.46 127.98 5.42L127.98 5.42L127.98 5.42Q128.24 5.37 128.26 5.74L128.26 5.74L128.26 5.74Q128.28 5.89 128.28 6.04L128.28 6.04L128.28 6.04Q128.29 6.19 128.30 6.32L128.30 6.32L128.30 6.50L128.28 6.76L128.28 6.76Q128.26 6.87 128.25 6.98L128.25 6.98L128.25 6.98Q128.24 7.09 128.24 7.19L128.24 7.19L128.24 7.19Q128.22 7.45 128.22 7.65L128.22 7.65L128.22 7.65Q128.22 7.84 128.23 7.97L128.23 7.97L128.23 7.97Q128.24 8.13 128.25 8.31L128.25 8.31L128.25 8.31Q128.25 8.49 128.24 8.69L128.24 8.69L128.24 8.69Q128.22 8.99 128.32 9.08L128.32 9.08L128.32 9.08Q128.39 9.17 128.64 9.19L128.64 9.19L128.64 9.19Q128.76 9.21 128.88 9.21L128.88 9.21L128.88 9.21Q129.00 9.22 129.12 9.24L129.12 9.24L129.12 9.24Q129.31 9.26 129.50 9.24L129.50 9.24L129.50 9.24Q129.69 9.22 129.88 9.25L129.88 9.25L129.88 9.25Q130.01 9.26 130.18 9.27L130.18 9.27L130.18 9.27Q130.35 9.28 130.46 9.34ZM135.02 9.56L135.02 9.56L135.02 9.56Q135.00 9.68 134.81 9.70L134.81 9.70L134.81 9.70Q134.62 9.69 134.62 9.49L134.62 9.49L134.62 9.49Q134.62 8.96 134.60 8.41L134.60 8.41L134.60 8.41Q134.57 7.87 134.63 7.33L134.63 7.33L134.63 7.33L134.63 7.33Q134.63 7.17 134.63 7.02L134.63 7.02L134.63 7.02Q134.63 6.87 134.62 6.73L134.62 6.73L134.57 6.21L134.57 6.21Q134.54 5.99 134.63 5.74L134.63 5.74L134.63 5.74Q134.70 5.56 134.82 5.52L134.82 5.52L134.82 5.52Q134.91 5.50 135.02 5.62L135.02 5.62L135.02 5.62Q135.11 5.72 135.16 5.80L135.16 5.80L135.16 5.80Q135.25 5.93 135.34 6.03L135.34 6.03L135.34 6.03Q135.43 6.13 135.52 6.22L135.52 6.22L135.52 6.22Q135.60 6.31 135.68 6.37L135.68 6.37L135.68 6.37Q135.75 6.44 135.83 6.52L135.83 6.52L135.83 6.52Q135.90 6.59 135.98 6.70L135.98 6.70L135.98 6.70Q136.06 6.80 136.16 6.95L136.16 6.95L136.46 7.41L136.46 7.41Q136.49 7.46 136.53 7.52L136.53 7.52L136.53 7.52Q136.57 7.58 136.62 7.66L136.62 7.66L136.63 7.67L136.63 7.67Q136.77 7.86 136.93 8.03L136.93 8.03L136.93 8.03Q137.01 8.11 137.08 8.19L137.08 8.19L137.08 8.19Q137.16 8.26 137.24 8.33L137.24 8.33L137.24 8.33Q137.31 8.42 137.42 8.39L137.42 8.39L137.42 8.39Q137.57 8.35 137.57 8.07L137.57 8.07L137.57 8.07Q137.57 8.00 137.56 7.93L137.56 7.93L137.56 7.93Q137.55 7.85 137.55 7.78L137.55 7.78L137.55 7.78Q137.54 7.72 137.53 7.67L137.53 7.67L137.53 7.67Q137.53 7.62 137.53 7.56L137.53 7.56L137.53 7.56Q137.53 7.53 137.52 7.50L137.52 7.50L137.52 7.50Q137.52 7.46 137.52 7.42L137.52 7.42L137.52 7.42Q137.55 6.82 137.48 6.30L137.48 6.30L137.48 6.30Q137.47 6.27 137.47 6.19L137.47 6.19L137.47 6.19Q137.47 6.11 137.48 5.99L137.48 5.99L137.48 5.99Q137.49 5.84 137.53 5.67L137.53 5.67L137.53 5.67Q137.55 5.42 137.74 5.42L137.74 5.42L137.74 5.42Q137.96 5.42 137.96 5.68L137.96 5.68L137.96 5.68Q137.97 5.89 137.98 6.11L137.98 6.11L137.98 6.11Q137.99 6.32 137.99 6.54L137.99 6.54L137.99 6.54Q138.00 6.85 137.98 7.16L137.98 7.16L137.98 7.16Q137.96 7.48 137.97 7.79L137.97 7.79L137.97 7.79Q137.98 8.00 137.98 8.21L137.98 8.21L137.98 8.21Q137.98 8.42 137.97 8.62L137.97 8.62L137.97 8.62Q137.97 8.74 137.97 8.85L137.97 8.85L137.97 8.85Q137.98 8.96 137.98 9.06L137.98 9.06L137.98 9.34L137.98 9.34Q137.97 9.38 137.97 9.42L137.97 9.42L137.97 9.42Q137.96 9.46 137.96 9.50L137.96 9.50L137.96 9.50Q137.96 9.50 137.96 9.51L137.96 9.51L137.96 9.51Q137.96 9.52 137.95 9.52L137.95 9.52L137.95 9.52Q137.87 9.62 137.72 9.62L137.72 9.62L137.72 9.62Q137.53 9.63 137.44 9.50L137.44 9.50L137.44 9.50Q137.33 9.37 137.25 9.22L137.25 9.22L137.25 9.22Q137.16 9.07 137.06 8.93L137.06 8.93L137.06 8.93Q136.94 8.76 136.79 8.58L136.79 8.58L136.79 8.58Q136.64 8.39 136.47 8.18L136.47 8.18L136.47 8.18Q136.40 8.10 136.27 7.90L136.27 7.90L136.04 7.52L136.04 7.52Q135.95 7.38 135.86 7.24L135.86 7.24L135.86 7.24Q135.77 7.10 135.67 6.97L135.67 6.97L135.67 6.97Q135.63 6.92 135.58 6.87L135.58 6.87L135.58 6.87Q135.54 6.81 135.48 6.77L135.48 6.77L135.48 6.77Q135.43 6.73 135.36 6.71L135.36 6.71L135.36 6.71Q135.29 6.69 135.22 6.71L135.22 6.71L135.22 6.71Q135.04 6.76 135.05 7.08L135.05 7.08L135.05 7.08Q135.06 7.31 135.06 7.52L135.06 7.52L135.06 7.52Q135.06 7.72 135.08 7.90L135.08 7.90L135.08 7.90Q135.09 8.05 135.07 8.19L135.07 8.19L135.07 8.19Q135.06 8.33 135.06 8.47L135.06 8.47L135.06 9.00L135.06 9.00Q135.06 9.17 135.05 9.31L135.05 9.31L135.05 9.31Q135.04 9.45 135.02 9.56ZM141.29 9.69L141.29 9.69L141.29 9.69Q141.15 9.65 141.01 9.58L141.01 9.58L141.01 9.58Q140.87 9.52 140.73 9.43L140.73 9.43L140.73 9.43Q140.60 9.34 140.49 9.24L140.49 9.24L140.49 9.24Q140.37 9.13 140.29 9.01L140.29 9.01L140.29 9.01Q140.18 8.84 140.13 8.66L140.13 8.66L140.13 8.66Q140.08 8.48 139.99 8.29L139.99 8.29L139.99 8.29Q139.92 8.13 139.92 7.96L139.92 7.96L139.92 7.96Q139.91 7.88 139.90 7.79L139.90 7.79L139.90 7.79Q139.89 7.70 139.89 7.62L139.89 7.62L139.89 7.62Q139.88 7.54 139.88 7.48L139.88 7.48L139.88 7.48Q139.88 7.42 139.88 7.38L139.88 7.38L139.88 7.38Q139.88 7.25 139.89 7.11L139.89 7.11L139.89 7.11Q139.91 6.97 139.95 6.82L139.95 6.82L139.95 6.82Q139.95 6.77 139.99 6.69L139.99 6.69L139.99 6.69Q140.05 6.49 140.16 6.31L140.16 6.31L140.16 6.31Q140.27 6.13 140.40 5.97L140.40 5.97L140.40 5.97Q140.67 5.67 141.15 5.43L141.15 5.43L141.15 5.43Q141.37 5.34 141.61 5.35L141.61 5.35L141.61 5.35Q141.76 5.36 141.91 5.39L141.91 5.39L141.91 5.39Q142.03 5.41 142.12 5.42L142.12 5.42L142.12 5.42Q142.21 5.43 142.28 5.44L142.28 5.44L142.28 5.44Q142.81 5.50 143.21 5.91L143.21 5.91L143.21 5.91Q143.30 6.00 143.38 6.10L143.38 6.10L143.38 6.10Q143.46 6.21 143.53 6.33L143.53 6.33L143.57 6.38L143.57 6.38Q143.58 6.41 143.58 6.42L143.58 6.42L143.58 6.42Q143.59 6.43 143.60 6.45L143.60 6.45L143.60 6.45Q143.71 6.72 143.81 7.13L143.81 7.13L143.81 7.13Q143.90 7.51 143.83 7.83L143.83 7.83L143.83 7.83Q143.79 8.02 143.73 8.19L143.73 8.19L143.73 8.19Q143.67 8.36 143.62 8.53L143.62 8.53L143.62 8.53Q143.36 9.45 142.42 9.69L142.42 9.69L142.37 9.70L142.37 9.70Q142.31 9.71 142.23 9.73L142.23 9.73L142.23 9.73Q142.15 9.74 142.04 9.75L142.04 9.75L142.04 9.75Q141.86 9.78 141.67 9.76L141.67 9.76L141.67 9.76Q141.48 9.75 141.29 9.69ZM141.98 5.78L141.98 5.78L141.98 5.78Q141.61 5.78 141.31 5.87L141.31 5.87L141.31 5.87Q141.01 5.95 140.77 6.19L140.77 6.19L140.77 6.19Q140.44 6.52 140.36 6.92L140.36 6.92L140.36 6.92Q140.27 7.32 140.36 7.81L140.36 7.81L140.42 8.15L140.42 8.15Q140.44 8.24 140.45 8.30L140.45 8.30L140.45 8.30Q140.46 8.36 140.47 8.37L140.47 8.37L140.47 8.37Q140.51 8.52 140.64 8.66L140.64 8.66L140.64 8.66Q140.76 8.80 140.86 8.90L140.86 8.90L140.86 8.90Q140.92 8.96 140.97 9.02L140.97 9.02L140.97 9.02Q141.03 9.08 141.09 9.13L141.09 9.13L141.09 9.13Q141.19 9.21 141.43 9.29L141.43 9.29L141.44 9.29L141.44 9.29Q141.57 9.32 141.73 9.31L141.73 9.31L141.73 9.31Q141.89 9.30 142.08 9.26L142.08 9.26L142.08 9.26Q142.18 9.23 142.28 9.22L142.28 9.22L142.28 9.22Q142.38 9.21 142.48 9.18L142.48 9.18L142.48 9.18Q142.73 9.12 142.91 8.91L142.91 8.91L142.91 8.91L142.91 8.90L142.91 8.90Q143.02 8.77 143.10 8.57L143.10 8.57L143.10 8.57Q143.17 8.37 143.20 8.32L143.20 8.32L143.20 8.32Q143.54 7.65 143.30 6.87L143.30 6.87L143.29 6.86L143.29 6.86Q143.27 6.79 143.24 6.72L143.24 6.72L143.24 6.72Q143.21 6.65 143.17 6.58L143.17 6.58L143.17 6.58Q142.90 6.18 142.53 6.00L142.53 6.00L142.53 6.00Q142.52 6.00 142.47 5.97L142.47 5.97L142.47 5.97Q142.42 5.94 142.33 5.89L142.33 5.89L142.33 5.89Q142.21 5.81 141.98 5.78L141.98 5.78ZM151.88 9.26L151.88 9.26L151.88 9.26Q151.38 9.71 150.66 9.75L150.66 9.75L150.66 9.75Q149.97 9.78 149.36 9.53L149.36 9.53L149.35 9.52L149.34 9.52L149.34 9.52Q149.24 9.49 149.04 9.33L149.04 9.33L149.04 9.33Q148.86 9.17 148.80 9.08L148.80 9.08L148.80 9.08Q148.70 8.95 148.62 8.78L148.62 8.78L148.62 8.78Q148.54 8.61 148.46 8.45L148.46 8.45L148.46 8.45Q148.31 8.16 148.29 7.95L148.29 7.95L148.29 7.95Q148.29 7.85 148.29 7.71L148.29 7.71L148.29 7.71Q148.29 7.58 148.31 7.41L148.31 7.41L148.31 7.41Q148.37 6.66 148.78 6.02L148.78 6.02L148.78 6.02Q148.81 5.97 148.91 5.89L148.91 5.89L148.91 5.89Q149.00 5.81 149.15 5.73L149.15 5.73L149.15 5.73Q149.47 5.56 149.69 5.49L149.69 5.49L149.69 5.49Q149.83 5.44 150.01 5.42L150.01 5.42L150.01 5.42Q150.42 5.37 150.85 5.42L150.85 5.42L150.85 5.42Q151.28 5.48 151.65 5.69L151.65 5.69L151.65 5.69Q151.70 5.72 151.77 5.77L151.77 5.77L151.77 5.77Q151.83 5.82 151.92 5.89L151.92 5.89L151.92 5.89Q152.09 6.02 152.11 6.15L152.11 6.15L152.11 6.15Q152.12 6.21 152.07 6.27L152.07 6.27L152.07 6.27Q152.00 6.36 151.93 6.36L151.93 6.36L151.93 6.36Q151.85 6.36 151.75 6.30L151.75 6.30L151.75 6.30Q151.66 6.23 151.60 6.19L151.60 6.19L151.60 6.19Q151.48 6.12 151.41 6.07L151.41 6.07L151.41 6.07Q151.34 6.02 151.33 6.01L151.33 6.01L151.33 6.01Q150.98 5.82 150.48 5.82L150.48 5.82L150.48 5.82Q150.36 5.82 150.23 5.83L150.23 5.83L150.23 5.83Q150.09 5.84 149.93 5.87L149.93 5.87L149.92 5.87L149.91 5.88L149.91 5.88Q149.04 6.13 148.78 7.06L148.78 7.06L148.78 7.06Q148.69 7.40 148.74 7.70L148.74 7.70L148.74 7.70Q148.79 8.00 148.87 8.31L148.87 8.31L148.87 8.31Q149.00 8.79 149.30 9.00L149.30 9.00L149.30 9.00Q149.60 9.21 150.06 9.30L150.06 9.30L150.07 9.30L150.07 9.30Q150.19 9.32 150.30 9.32L150.30 9.32L150.30 9.32Q150.40 9.32 150.51 9.30L150.51 9.30L150.51 9.30Q150.61 9.28 150.72 9.26L150.72 9.26L150.72 9.26Q150.82 9.24 150.94 9.23L150.94 9.23L150.94 9.23Q151.43 9.17 151.63 8.88L151.63 8.88L151.63 8.87L151.63 8.87Q151.79 8.64 151.76 8.22L151.76 8.22L151.76 8.22Q151.75 8.00 151.60 7.87L151.60 7.87L151.60 7.87Q151.42 7.70 151.09 7.71L151.09 7.71L150.54 7.73L150.54 7.73Q150.45 7.74 150.38 7.74L150.38 7.74L150.38 7.74Q150.32 7.75 150.26 7.75L150.26 7.75L150.26 7.75Q150.00 7.71 150.04 7.51L150.04 7.51L150.04 7.51Q150.06 7.38 150.23 7.33L150.23 7.33L150.23 7.33Q150.53 7.31 150.83 7.33L150.83 7.33L150.83 7.33Q151.13 7.35 151.44 7.33L151.44 7.33L151.74 7.31L151.74 7.31Q151.94 7.29 152.03 7.38L152.03 7.38L152.03 7.38Q152.14 7.46 152.15 7.66L152.15 7.66L152.15 7.66Q152.17 7.87 152.17 7.98L152.17 7.98L152.17 7.98Q152.17 8.16 152.17 8.36L152.17 8.36L152.17 8.36Q152.18 8.57 152.15 8.74L152.15 8.74L152.15 8.74Q152.10 9.00 151.88 9.26ZM157.01 5.56L157.01 5.56L157.01 5.56Q157.11 5.83 156.80 5.85L156.80 5.85L156.80 5.85Q156.39 5.88 155.97 5.86L155.97 5.86L155.97 5.86Q155.55 5.84 155.14 5.87L155.14 5.87L155.14 5.87Q154.98 5.89 154.76 5.85L154.76 5.85L154.76 5.85Q154.54 5.82 154.43 5.94L154.43 5.94L154.43 5.94Q154.34 6.03 154.36 6.17L154.36 6.17L154.36 6.17Q154.36 6.17 154.36 6.21L154.36 6.21L154.36 6.21Q154.36 6.24 154.36 6.33L154.36 6.33L154.36 6.33Q154.36 6.42 154.35 6.57L154.35 6.57L154.35 6.57Q154.33 6.83 154.43 6.94L154.43 6.94L154.43 6.94Q154.53 7.06 154.71 7.06L154.71 7.06L154.71 7.06Q154.82 7.07 154.97 7.07L154.97 7.07L154.97 7.07Q155.13 7.08 155.33 7.09L155.33 7.09L155.33 7.09Q155.36 7.10 155.44 7.09L155.44 7.09L155.44 7.09Q155.52 7.08 155.66 7.08L155.66 7.08L155.66 7.08Q155.74 7.07 155.86 7.06L155.86 7.06L155.86 7.06Q155.99 7.05 156.06 7.10L156.06 7.10L156.06 7.10Q156.13 7.15 156.13 7.27L156.13 7.27L156.13 7.27Q156.14 7.36 156.10 7.40L156.10 7.40L156.10 7.40Q156.04 7.47 155.85 7.47L155.85 7.47L155.85 7.47Q155.75 7.47 155.66 7.46L155.66 7.46L155.66 7.46Q155.57 7.46 155.48 7.45L155.48 7.45L155.48 7.45Q155.26 7.44 155.05 7.45L155.05 7.45L155.05 7.45Q154.96 7.46 154.86 7.47L154.86 7.47L154.86 7.47Q154.77 7.47 154.68 7.47L154.68 7.47L154.68 7.47Q154.46 7.47 154.39 7.55L154.39 7.55L154.39 7.55Q154.34 7.62 154.34 7.85L154.34 7.85L154.34 7.85Q154.34 8.16 154.35 8.46L154.35 8.46L154.35 8.46Q154.36 8.76 154.38 9.05L154.38 9.05L154.38 9.05Q154.38 9.11 154.38 9.18L154.38 9.18L154.38 9.18Q154.38 9.26 154.37 9.37L154.37 9.37L154.37 9.37Q154.36 9.57 154.28 9.64L154.28 9.64L154.28 9.64Q154.22 9.70 154.15 9.70L154.15 9.70L154.15 9.70Q154.09 9.71 154.04 9.68L154.04 9.68L154.04 9.68Q153.99 9.65 153.95 9.58L153.95 9.58L153.95 9.58Q153.92 9.52 153.91 9.45L153.91 9.45L153.91 9.45Q153.90 9.35 153.90 9.23L153.90 9.23L153.90 9.23Q153.90 9.11 153.92 8.96L153.92 8.96L153.92 8.96Q153.92 8.85 153.93 8.74L153.93 8.74L153.93 8.74Q153.93 8.62 153.93 8.50L153.93 8.50L153.93 8.50Q153.94 8.37 153.94 8.26L153.94 8.26L153.94 8.26Q153.95 8.16 153.96 8.08L153.96 8.08L153.96 8.08Q153.97 7.90 153.95 7.72L153.95 7.72L153.95 7.72Q153.93 7.53 153.93 7.35L153.93 7.35L153.93 6.59L153.93 6.59Q153.93 6.38 153.92 6.17L153.92 6.17L153.92 6.17Q153.91 5.95 153.91 5.74L153.91 5.74L153.91 5.71L153.91 5.71Q153.95 5.54 154.11 5.46L154.11 5.46L154.11 5.46Q154.21 5.41 154.42 5.41L154.42 5.41L154.42 5.41Q154.53 5.41 154.64 5.42L154.64 5.42L154.64 5.42Q154.75 5.42 154.86 5.42L154.86 5.42L154.86 5.42Q155.31 5.42 155.76 5.41L155.76 5.41L155.76 5.41Q156.20 5.40 156.65 5.41L156.65 5.41L156.65 5.41Q156.72 5.42 156.78 5.42L156.78 5.42L156.78 5.42Q156.84 5.43 156.91 5.44L156.91 5.44L156.91 5.44Q156.97 5.48 157.01 5.56Z"></path></g><!----><g data-v-423bf9ae="" id="6dcd72fb-636d-45ef-b497-c60a96c072ec" transform="matrix(1.8750256303476032,0,0,1.8750256303476032,0.9993155984590842,-0.0005742330664446627)" stroke="none" fill="#DA4F39"><path d="M13.886 48l-.047-.001A14.48 14.48 0 0 1 .001 34.16a1.001 1.001 0 0 1 .292-.754L33.406.293c.198-.199.475-.299.754-.292a14.479 14.479 0 0 1 13.839 13.838c.013.281-.093.555-.292.754L14.593 47.707a.997.997 0 0 1-.707.293zM2.027 34.501a12.484 12.484 0 0 0 11.471 11.473l32.476-32.476A12.481 12.481 0 0 0 34.501 2.027L2.027 34.501z"></path><path d="M22.614 33.035a2.647 2.647 0 0 1-1.877-.772l-4.998-4.999a2.66 2.66 0 0 1 0-3.755l7.767-7.769c1.006-1.002 2.754-1 3.756 0l4.994 4.998c.5.499.776 1.166.776 1.876 0 .711-.275 1.378-.776 1.879l-7.764 7.768a2.645 2.645 0 0 1-1.878.774zm2.771-16.071a.659.659 0 0 0-.467.191l-7.764 7.767a.658.658 0 0 0 0 .928l4.995 4.996a.683.683 0 0 0 .929-.001l7.764-7.768a.65.65 0 0 0 .19-.464.645.645 0 0 0-.189-.461l-4.995-4.998a.651.651 0 0 0-.463-.19z"></path><circle cx="36.15" cy="4.589" r=".525"></circle><circle cx="33.619" cy="7.12" r=".525"></circle><circle cx="31.091" cy="9.651" r=".524"></circle><circle cx="28.559" cy="12.181" r=".524"></circle><circle cx="43.411" cy="11.849" r=".524"></circle><circle cx="40.879" cy="14.379" r=".525"></circle><circle cx="38.35" cy="16.91" r=".525"></circle><circle cx="35.818" cy="19.44" r=".524"></circle><path d="M39.094 9.646a.518.518 0 0 1-.738 0 .52.52 0 0 1 0-.741.521.521 0 0 1 .738 0 .52.52 0 0 1 0 .741z"></path><circle cx="36.195" cy="11.806" r=".524"></circle><circle cx="33.664" cy="14.336" r=".525"></circle><g><circle cx="12.391" cy="28.35" r=".524"></circle><circle cx="9.859" cy="30.88" r=".524"></circle><path d="M7.699 33.781a.52.52 0 0 1-.739 0 .519.519 0 0 1 0-.74.517.517 0 0 1 .739 0 .519.519 0 0 1 0 .74z"></path><circle cx="4.798" cy="35.942" r=".525"></circle></g><g><circle cx="19.65" cy="35.609" r=".524"></circle><circle cx="17.12" cy="38.14" r=".524"></circle><circle cx="14.591" cy="40.67" r=".525"></circle><circle cx="12.058" cy="43.2" r=".523"></circle></g><path d="M15.333 33.406a.517.517 0 0 1-.739 0 .519.519 0 0 1 0-.74.52.52 0 0 1 .739 0 .519.519 0 0 1 0 .74z"></path><circle cx="12.434" cy="35.566" r=".525"></circle><path d="M10.275 38.469a.526.526 0 1 1-.743-.744.533.533 0 0 1 .743 0 .529.529 0 0 1 0 .744z"></path></g><!----><g data-v-423bf9ae="" id="840fb2a4-57a8-4e9c-aee3-62ba3e8db402" fill="#ffffff" transform="matrix(3.7743797308174325,0,0,3.7743797308174325,108.75594530928936,38.523782477415665)"><path d="M0.40 8.09L0.33 5.89L7.40 5.89L7.16 8.16L6.82 8.12L6.70 6.24L4.16 6.24L4.16 13.90L5.37 14.08L5.30 14.40L2.20 14.40L2.24 14.11L3.43 13.90L3.43 6.24L1.00 6.24L0.76 8.15L0.40 8.09ZM16.33 6.33L15.10 6.16L15.12 5.89L18.24 5.89L18.20 6.16L17.05 6.32L17.05 9.95L21.96 9.95L21.96 6.33L20.70 6.16L20.75 5.89L23.86 5.89L23.80 6.16L22.66 6.32L22.66 13.95L23.91 14.08L23.86 14.40L20.77 14.40L20.82 14.11L21.96 13.90L21.96 10.36L17.05 10.36L17.05 13.95L18.32 14.08L18.25 14.40L15.16 14.40L15.19 14.11L16.33 13.90L16.33 6.33ZM32.85 6.36L31.62 6.18L31.67 5.89L37.86 5.89L37.65 8.07L37.34 8.03L37.21 6.24L33.56 6.24L33.56 9.89L35.85 9.89L36.10 8.94L36.47 8.89L36.24 11.55L35.90 11.61L35.79 10.26L33.56 10.26L33.56 14.03L37.40 14.03L37.91 12.19L38.19 12.26L37.98 14.40L31.64 14.40L31.68 14.11L32.85 13.90L32.85 6.36ZM47.71 6.18L47.71 10.11L49.27 10.11L49.27 10.11Q49.95 9.86 50.41 9.28L50.41 9.28L50.41 9.28Q50.87 8.70 50.87 8.02L50.87 8.02L50.87 8.02Q50.87 7.11 50.25 6.63L50.25 6.63L50.25 6.63Q49.63 6.15 48.54 6.15L48.54 6.15L47.71 6.18ZM49.09 14.40L45.90 14.40L45.94 14.11L47.01 13.90L47.01 6.51L45.92 6.37L45.98 6.13L45.98 6.13Q47.80 5.83 48.88 5.83L48.88 5.83L48.88 5.83Q49.65 5.83 50.26 6.05L50.26 6.05L50.26 6.05Q50.87 6.27 51.24 6.73L51.24 6.73L51.24 6.73Q51.62 7.19 51.62 7.83L51.62 7.83L51.62 7.83Q51.62 8.57 51.19 9.14L51.19 9.14L51.19 9.14Q50.76 9.72 49.73 10.23L49.73 10.23L49.73 10.23L51.05 12.19L51.05 12.19Q51.76 13.23 52.11 13.58L52.11 13.58L52.11 13.58Q52.45 13.92 52.83 14.05L52.83 14.05L53.16 14.16L53.12 14.42L53.12 14.42Q52.83 14.52 52.49 14.52L52.49 14.52L52.49 14.52Q52.20 14.52 51.95 14.40L51.95 14.40L51.95 14.40Q51.69 14.28 51.45 14.01L51.45 14.01L51.45 14.01Q51.21 13.75 51.02 13.48L51.02 13.48L51.02 13.48Q50.84 13.22 50.57 12.77L50.57 12.77L49.18 10.49L47.71 10.49L47.71 13.95L49.16 14.08L49.09 14.40ZM64.91 6.98L63.55 10.75L66.23 10.75L64.91 6.98ZM63.59 14.40L60.87 14.40L60.90 14.11L61.87 13.90L64.87 5.82L65.23 5.73L68.07 13.95L68.97 14.08L68.91 14.39L66.12 14.39L66.18 14.10L67.31 13.90L66.36 11.13L63.41 11.13L62.40 13.95L63.66 14.08L63.59 14.40ZM80.07 14.40L76.66 14.40L76.69 14.11L77.77 13.90L77.77 6.51L76.67 6.36L76.73 6.12L76.73 6.12Q76.90 6.09 77.35 6.02L77.35 6.02L77.35 6.02Q77.79 5.94 78.02 5.91L78.02 5.91L78.02 5.91Q78.25 5.88 78.66 5.84L78.66 5.84L78.66 5.84Q79.07 5.81 79.49 5.81L79.49 5.81L79.49 5.81Q80.18 5.81 80.77 5.96L80.77 5.96L80.77 5.96Q81.35 6.10 81.82 6.40L81.82 6.40L81.82 6.40Q82.28 6.69 82.54 7.18L82.54 7.18L82.54 7.18Q82.80 7.66 82.80 8.29L82.80 8.29L82.80 8.29Q82.80 8.90 82.52 9.43L82.52 9.43L82.52 9.43Q82.24 9.97 81.77 10.33L81.77 10.33L81.77 10.33Q81.31 10.69 80.71 10.90L80.71 10.90L80.71 10.90Q80.11 11.10 79.47 11.10L79.47 11.10L79.47 11.10Q79.20 11.10 79.13 11.09L79.13 11.09L79.06 10.80L79.43 10.78L79.43 10.78Q80.10 10.75 80.59 10.55L80.59 10.55L80.59 10.55Q81.09 10.36 81.38 10.03L81.38 10.03L81.38 10.03Q81.67 9.70 81.81 9.30L81.81 9.30L81.81 9.30Q81.95 8.90 81.95 8.43L81.95 8.43L81.95 8.43Q81.95 7.98 81.78 7.57L81.78 7.57L81.78 7.57Q81.61 7.16 81.29 6.83L81.29 6.83L81.29 6.83Q80.97 6.50 80.45 6.31L80.45 6.31L80.45 6.31Q79.93 6.11 79.28 6.11L79.28 6.11L78.52 6.15L78.52 13.95L80.12 14.08L80.07 14.40ZM91.42 6.35L90.47 6.15L90.50 5.90L93.35 5.90L93.32 6.15L92.19 6.32L94.33 10.49L96.45 6.34L95.18 6.14L95.20 5.89L97.86 5.89L97.84 6.14L96.96 6.32L94.58 11.05L94.58 13.94L95.81 14.08L95.76 14.40L92.61 14.40L92.65 14.11L93.85 13.90L93.85 11.05L91.42 6.35ZM117.15 7.38L117.15 7.38L117.15 7.38Q117.15 8.09 118.21 9.40L118.21 9.40L118.21 9.40Q118.86 8.91 119.21 8.48L119.21 8.48L119.21 8.48Q119.55 8.05 119.55 7.56L119.55 7.56L119.55 7.56Q119.55 6.97 119.19 6.54L119.19 6.54L119.19 6.54Q118.82 6.11 118.31 6.11L118.31 6.11L118.31 6.11Q117.80 6.11 117.48 6.49L117.48 6.49L117.48 6.49Q117.15 6.87 117.15 7.38ZM116.25 12.48L116.25 12.48L116.25 12.48Q116.25 13.09 116.68 13.52L116.68 13.52L116.68 13.52Q117.11 13.95 117.74 13.95L117.74 13.95L117.74 13.95Q118.90 13.95 119.88 12.41L119.88 12.41L117.94 10.14L117.92 10.14L117.92 10.14Q117.53 10.44 117.27 10.66L117.27 10.66L117.27 10.66Q117.02 10.88 116.76 11.18L116.76 11.18L116.76 11.18Q116.50 11.47 116.37 11.80L116.37 11.80L116.37 11.80Q116.25 12.12 116.25 12.48ZM115.48 12.74L115.48 12.74L115.48 12.74Q115.48 12.36 115.62 12.00L115.62 12.00L115.62 12.00Q115.75 11.63 115.93 11.38L115.93 11.38L115.93 11.38Q116.10 11.12 116.45 10.79L116.45 10.79L116.45 10.79Q116.79 10.47 117.01 10.29L117.01 10.29L117.01 10.29Q117.23 10.12 117.65 9.80L117.65 9.80L117.65 9.80Q116.62 8.55 116.62 7.73L116.62 7.73L116.62 7.73Q116.62 6.91 117.16 6.31L117.16 6.31L117.16 6.31Q117.70 5.70 118.50 5.70L118.50 5.70L118.50 5.70Q119.29 5.70 119.76 6.17L119.76 6.17L119.76 6.17Q120.23 6.63 120.23 7.42L120.23 7.42L120.23 7.42Q120.23 7.70 120.13 7.97L120.13 7.97L120.13 7.97Q120.03 8.24 119.89 8.46L119.89 8.46L119.89 8.46Q119.75 8.67 119.49 8.91L119.49 8.91L119.49 8.91Q119.24 9.15 119.03 9.32L119.03 9.32L119.03 9.32Q118.83 9.49 118.50 9.73L118.50 9.73L118.50 9.75L120.24 11.76L121.53 9.47L120.43 9.26L120.44 9.02L123.29 9.02L123.25 9.26L122.10 9.45L120.58 12.13L120.58 12.13Q121.79 13.71 122.94 14.08L122.94 14.08L123.25 14.16L123.20 14.42L123.20 14.42Q122.87 14.53 122.58 14.53L122.58 14.53L122.58 14.53Q122.12 14.53 121.66 14.26L121.66 14.26L121.66 14.26Q121.21 13.98 120.89 13.60L120.89 13.60L120.19 12.78L120.19 12.78Q120.00 13.07 119.81 13.30L119.81 13.30L119.81 13.30Q119.62 13.53 119.36 13.77L119.36 13.77L119.36 13.77Q119.10 14.01 118.82 14.17L118.82 14.17L118.82 14.17Q118.54 14.33 118.19 14.43L118.19 14.43L118.19 14.43Q117.83 14.53 117.44 14.53L117.44 14.53L117.44 14.53Q116.55 14.53 116.02 14.02L116.02 14.02L116.02 14.02Q115.48 13.50 115.48 12.74ZM140.88 10.25L140.88 10.25L140.88 10.25Q140.88 9.73 140.98 9.21L140.98 9.21L140.98 9.21Q141.09 8.68 141.29 8.17L141.29 8.17L141.29 8.17Q141.49 7.66 141.82 7.22L141.82 7.22L141.82 7.22Q142.15 6.77 142.56 6.44L142.56 6.44L142.56 6.44Q142.97 6.10 143.53 5.90L143.53 5.90L143.53 5.90Q144.09 5.71 144.72 5.71L144.72 5.71L144.72 5.71Q146.14 5.71 147.05 6.39L147.05 6.39L146.84 8.70L146.51 8.64L146.31 6.87L146.31 6.87Q145.71 6.09 144.40 6.09L144.40 6.09L144.40 6.09Q143.25 6.09 142.43 7.19L142.43 7.19L142.43 7.19Q141.60 8.30 141.60 10.00L141.60 10.00L141.60 10.00Q141.60 11.92 142.40 12.97L142.40 12.97L142.40 12.97Q143.21 14.03 144.68 14.03L144.68 14.03L144.68 14.03Q145.41 14.03 146.10 13.65L146.10 13.65L146.10 13.65Q146.79 13.28 147.27 12.74L147.27 12.74L147.42 12.99L147.42 12.99Q147.25 13.25 146.97 13.51L146.97 13.51L146.97 13.51Q146.68 13.77 146.29 14.02L146.29 14.02L146.29 14.02Q145.91 14.27 145.40 14.42L145.40 14.42L145.40 14.42Q144.89 14.57 144.37 14.57L144.37 14.57L144.37 14.57Q142.80 14.57 141.84 13.40L141.84 13.40L141.84 13.40Q140.88 12.22 140.88 10.25ZM155.88 9.75L155.88 9.75L155.88 9.75Q155.88 11.03 156.24 12.01L156.24 12.01L156.24 12.01Q156.60 13.00 157.32 13.57L157.32 13.57L157.32 13.57Q158.04 14.14 159.02 14.14L159.02 14.14L159.02 14.14Q159.59 14.14 160.08 13.92L160.08 13.92L160.08 13.92Q160.58 13.70 160.92 13.33L160.92 13.33L160.92 13.33Q161.27 12.96 161.51 12.49L161.51 12.49L161.51 12.49Q161.75 12.01 161.87 11.50L161.87 11.50L161.87 11.50Q161.98 10.99 161.98 10.48L161.98 10.48L161.98 10.48Q161.98 8.50 161.13 7.29L161.13 7.29L161.13 7.29Q160.28 6.07 158.83 6.07L158.83 6.07L158.83 6.07Q158.25 6.07 157.76 6.28L157.76 6.28L157.76 6.28Q157.27 6.49 156.93 6.85L156.93 6.85L156.93 6.85Q156.58 7.21 156.34 7.69L156.34 7.69L156.34 7.69Q156.11 8.16 155.99 8.69L155.99 8.69L155.99 8.69Q155.88 9.21 155.88 9.75ZM155.13 10.16L155.13 10.16L155.13 10.16Q155.13 8.16 156.23 6.92L156.23 6.92L156.23 6.92Q157.32 5.69 159.16 5.69L159.16 5.69L159.16 5.69Q160.30 5.69 161.11 6.27L161.11 6.27L161.11 6.27Q161.93 6.86 162.33 7.84L162.33 7.84L162.33 7.84Q162.72 8.83 162.72 10.11L162.72 10.11L162.72 10.11Q162.72 10.75 162.57 11.38L162.57 11.38L162.57 11.38Q162.42 12.00 162.10 12.58L162.10 12.58L162.10 12.58Q161.77 13.17 161.31 13.61L161.31 13.61L161.31 13.61Q160.85 14.05 160.17 14.32L160.17 14.32L160.17 14.32Q159.50 14.58 158.69 14.58L158.69 14.58L158.69 14.58Q157.64 14.58 156.81 13.98L156.81 13.98L156.81 13.98Q155.99 13.37 155.56 12.37L155.56 12.37L155.56 12.37Q155.13 11.37 155.13 10.16ZM171.66 6.33L170.42 6.16L170.45 5.89L173.55 5.89L173.52 6.16L172.37 6.32L172.37 11.01L172.37 11.01Q172.37 11.87 172.55 12.49L172.55 12.49L172.55 12.49Q172.73 13.10 173.08 13.45L173.08 13.45L173.08 13.45Q173.43 13.79 173.88 13.95L173.88 13.95L173.88 13.95Q174.32 14.11 174.91 14.11L174.91 14.11L174.91 14.11Q176.09 14.11 176.73 13.40L176.73 13.40L176.73 13.40Q177.37 12.68 177.37 11.33L177.37 11.33L177.37 6.33L176.10 6.16L176.13 5.89L179.04 5.89L178.99 6.16L177.85 6.32L177.83 11.05L177.83 11.05Q177.82 12.78 177.08 13.68L177.08 13.68L177.08 13.68Q176.35 14.58 174.69 14.58L174.69 14.58L174.69 14.58Q174.19 14.58 173.76 14.49L173.76 14.49L173.76 14.49Q173.34 14.40 172.94 14.16L172.94 14.16L172.94 14.16Q172.55 13.93 172.27 13.56L172.27 13.56L172.27 13.56Q171.99 13.19 171.82 12.60L171.82 12.60L171.82 12.60Q171.66 12.01 171.66 11.24L171.66 11.24L171.66 6.33ZM187.97 6.36L186.70 6.14L186.76 5.89L188.83 5.89L193.55 13.17L193.55 6.33L192.30 6.16L192.34 5.89L195.24 5.89L195.19 6.16L194.05 6.32L194.05 14.44L193.68 14.52L188.47 6.65L188.47 13.95L189.73 14.08L189.66 14.40L186.79 14.40L186.83 14.11L187.97 13.90L187.97 6.36ZM202.93 13.60L202.93 13.60L203.14 11.66L203.46 11.71L203.66 13.21L203.66 13.21Q203.88 13.64 204.41 13.89L204.41 13.89L204.41 13.89Q204.94 14.14 205.54 14.14L205.54 14.14L205.54 14.14Q206.23 14.14 206.71 13.74L206.71 13.74L206.71 13.74Q207.18 13.33 207.18 12.61L207.18 12.61L207.18 12.61Q207.18 12.20 206.97 11.83L206.97 11.83L206.97 11.83Q206.75 11.46 206.41 11.18L206.41 11.18L206.41 11.18Q206.06 10.90 205.64 10.63L205.64 10.63L205.64 10.63Q205.22 10.36 204.80 10.07L204.80 10.07L204.80 10.07Q204.39 9.79 204.04 9.48L204.04 9.48L204.04 9.48Q203.70 9.17 203.48 8.75L203.48 8.75L203.48 8.75Q203.27 8.33 203.27 7.84L203.27 7.84L203.27 7.84Q203.27 6.88 203.96 6.29L203.96 6.29L203.96 6.29Q204.65 5.71 205.54 5.71L205.54 5.71L205.54 5.71Q206.12 5.71 206.66 5.90L206.66 5.90L206.66 5.90Q207.20 6.09 207.53 6.46L207.53 6.46L207.31 8.58L206.99 8.53L206.81 6.87L206.81 6.87Q206.62 6.54 206.21 6.32L206.21 6.32L206.21 6.32Q205.79 6.10 205.36 6.10L205.36 6.10L205.36 6.10Q204.76 6.10 204.35 6.48L204.35 6.48L204.35 6.48Q203.94 6.87 203.94 7.52L203.94 7.52L203.94 7.52Q203.94 7.96 204.16 8.35L204.16 8.35L204.16 8.35Q204.38 8.74 204.73 9.03L204.73 9.03L204.73 9.03Q205.08 9.32 205.51 9.61L205.51 9.61L205.51 9.61Q205.93 9.89 206.36 10.17L206.36 10.17L206.36 10.17Q206.79 10.45 207.14 10.75L207.14 10.75L207.14 10.75Q207.49 11.05 207.71 11.45L207.71 11.45L207.71 11.45Q207.94 11.85 207.94 12.29L207.94 12.29L207.94 12.29Q207.94 13.28 207.18 13.93L207.18 13.93L207.18 13.93Q206.43 14.57 205.19 14.57L205.19 14.57L205.19 14.57Q204.48 14.57 203.88 14.30L203.88 14.30L203.88 14.30Q203.27 14.03 202.93 13.60ZM216.88 6.36L215.65 6.18L215.70 5.89L221.89 5.89L221.68 8.07L221.37 8.03L221.24 6.24L217.59 6.24L217.59 9.89L219.88 9.89L220.13 8.94L220.50 8.89L220.27 11.55L219.93 11.61L219.82 10.26L217.59 10.26L217.59 14.03L221.43 14.03L221.94 12.19L222.22 12.26L222.01 14.40L215.67 14.40L215.71 14.11L216.88 13.90L216.88 6.36ZM236.09 14.40L229.94 14.40L229.97 14.11L231.13 13.90L231.13 6.34L229.95 6.17L229.98 5.90L233.09 5.90L233.06 6.17L231.86 6.32L231.86 14.03L235.48 14.03L236.01 12.09L236.31 12.14L236.09 14.40ZM245.19 6.33L244.01 6.16L244.05 5.89L247.17 5.89L247.13 6.16L245.93 6.32L245.93 13.95L247.25 14.08L247.19 14.40L244.08 14.40L244.11 14.11L245.19 13.90L245.19 6.33ZM256.20 6.36L254.94 6.14L254.99 5.89L257.07 5.89L261.79 13.17L261.79 6.33L260.54 6.16L260.58 5.89L263.48 5.89L263.42 6.16L262.29 6.32L262.29 14.44L261.92 14.52L256.71 6.65L256.71 13.95L257.97 14.08L257.90 14.40L255.02 14.40L255.06 14.11L256.20 13.90L256.20 6.36ZM271.19 10.27L271.19 10.27L271.19 10.27Q271.19 9.64 271.36 9.00L271.36 9.00L271.36 9.00Q271.53 8.36 271.88 7.78L271.88 7.78L271.88 7.78Q272.23 7.21 272.71 6.75L272.71 6.75L272.71 6.75Q273.18 6.30 273.85 6.04L273.85 6.04L273.85 6.04Q274.52 5.77 275.28 5.77L275.28 5.77L275.28 5.77Q276.01 5.77 276.72 5.94L276.72 5.94L276.72 5.94Q277.42 6.11 277.89 6.47L277.89 6.47L277.69 8.64L277.38 8.61L277.17 6.99L277.17 6.99Q276.90 6.65 276.36 6.41L276.36 6.41L276.36 6.41Q275.81 6.17 275.05 6.17L275.05 6.17L275.05 6.17Q273.64 6.17 272.81 7.27L272.81 7.27L272.81 7.27Q271.97 8.37 271.97 10.07L271.97 10.07L271.97 10.07Q271.97 10.69 272.08 11.25L272.08 11.25L272.08 11.25Q272.19 11.81 272.44 12.34L272.44 12.34L272.44 12.34Q272.69 12.87 273.07 13.25L273.07 13.25L273.07 13.25Q273.45 13.63 274.04 13.86L274.04 13.86L274.04 13.86Q274.63 14.09 275.36 14.09L275.36 14.09L275.36 14.09Q276.42 14.09 277.14 13.59L277.14 13.59L277.15 11.03L275.50 10.86L275.54 10.60L278.82 10.60L278.78 10.86L277.86 11.01L277.86 13.86L277.86 13.86Q277.21 14.25 276.47 14.39L276.47 14.39L276.47 14.39Q275.73 14.53 274.65 14.53L274.65 14.53L274.65 14.53Q273.94 14.53 273.31 14.23L273.31 14.23L273.31 14.23Q272.68 13.93 272.21 13.39L272.21 13.39L272.21 13.39Q271.74 12.85 271.47 12.04L271.47 12.04L271.47 12.04Q271.19 11.23 271.19 10.27ZM296.41 13.60L296.41 13.60L296.62 11.66L296.95 11.71L297.14 13.21L297.14 13.21Q297.36 13.64 297.89 13.89L297.89 13.89L297.89 13.89Q298.42 14.14 299.02 14.14L299.02 14.14L299.02 14.14Q299.71 14.14 300.19 13.74L300.19 13.74L300.19 13.74Q300.67 13.33 300.67 12.61L300.67 12.61L300.67 12.61Q300.67 12.20 300.45 11.83L300.45 11.83L300.45 11.83Q300.23 11.46 299.89 11.18L299.89 11.18L299.89 11.18Q299.54 10.90 299.12 10.63L299.12 10.63L299.12 10.63Q298.70 10.36 298.29 10.07L298.29 10.07L298.29 10.07Q297.87 9.79 297.52 9.48L297.52 9.48L297.52 9.48Q297.18 9.17 296.96 8.75L296.96 8.75L296.96 8.75Q296.75 8.33 296.75 7.84L296.75 7.84L296.75 7.84Q296.75 6.88 297.44 6.29L297.44 6.29L297.44 6.29Q298.14 5.71 299.02 5.71L299.02 5.71L299.02 5.71Q299.61 5.71 300.15 5.90L300.15 5.90L300.15 5.90Q300.69 6.09 301.01 6.46L301.01 6.46L300.79 8.58L300.47 8.53L300.29 6.87L300.29 6.87Q300.10 6.54 299.69 6.32L299.69 6.32L299.69 6.32Q299.27 6.10 298.84 6.10L298.84 6.10L298.84 6.10Q298.25 6.10 297.83 6.48L297.83 6.48L297.83 6.48Q297.42 6.87 297.42 7.52L297.42 7.52L297.42 7.52Q297.42 7.96 297.64 8.35L297.64 8.35L297.64 8.35Q297.86 8.74 298.21 9.03L298.21 9.03L298.21 9.03Q298.57 9.32 298.99 9.61L298.99 9.61L298.99 9.61Q299.41 9.89 299.84 10.17L299.84 10.17L299.84 10.17Q300.27 10.45 300.62 10.75L300.62 10.75L300.62 10.75Q300.97 11.05 301.19 11.45L301.19 11.45L301.19 11.45Q301.42 11.85 301.42 12.29L301.42 12.29L301.42 12.29Q301.42 13.28 300.67 13.93L300.67 13.93L300.67 13.93Q299.91 14.57 298.67 14.57L298.67 14.57L298.67 14.57Q297.96 14.57 297.36 14.30L297.36 14.30L297.36 14.30Q296.75 14.03 296.41 13.60ZM310.36 6.36L309.13 6.18L309.18 5.89L315.38 5.89L315.16 8.07L314.85 8.03L314.72 6.24L311.07 6.24L311.07 9.89L313.36 9.89L313.61 8.94L313.98 8.89L313.76 11.55L313.41 11.61L313.30 10.26L311.07 10.26L311.07 14.03L314.91 14.03L315.42 12.19L315.70 12.26L315.49 14.40L309.16 14.40L309.20 14.11L310.36 13.90L310.36 6.36ZM325.23 6.18L325.23 10.11L326.78 10.11L326.78 10.11Q327.46 9.86 327.92 9.28L327.92 9.28L327.92 9.28Q328.38 8.70 328.38 8.02L328.38 8.02L328.38 8.02Q328.38 7.11 327.76 6.63L327.76 6.63L327.76 6.63Q327.14 6.15 326.05 6.15L326.05 6.15L325.23 6.18ZM326.60 14.40L323.41 14.40L323.46 14.11L324.52 13.90L324.52 6.51L323.43 6.37L323.49 6.13L323.49 6.13Q325.32 5.83 326.40 5.83L326.40 5.83L326.40 5.83Q327.16 5.83 327.77 6.05L327.77 6.05L327.77 6.05Q328.38 6.27 328.75 6.73L328.75 6.73L328.75 6.73Q329.13 7.19 329.13 7.83L329.13 7.83L329.13 7.83Q329.13 8.57 328.70 9.14L328.70 9.14L328.70 9.14Q328.28 9.72 327.24 10.23L327.24 10.23L327.24 10.23L328.56 12.19L328.56 12.19Q329.27 13.23 329.62 13.58L329.62 13.58L329.62 13.58Q329.96 13.92 330.35 14.05L330.35 14.05L330.67 14.16L330.63 14.42L330.63 14.42Q330.34 14.52 330.00 14.52L330.00 14.52L330.00 14.52Q329.71 14.52 329.46 14.40L329.46 14.40L329.46 14.40Q329.21 14.28 328.96 14.01L328.96 14.01L328.96 14.01Q328.72 13.75 328.54 13.48L328.54 13.48L328.54 13.48Q328.35 13.22 328.08 12.77L328.08 12.77L326.69 10.49L325.23 10.49L325.23 13.95L326.67 14.08L326.60 14.40ZM339.35 6.34L338.34 6.14L338.37 5.89L341.27 5.89L341.24 6.14L340.09 6.32L342.46 13.30L345.04 6.34L343.77 6.14L343.79 5.89L346.45 5.89L346.42 6.14L345.54 6.32L342.53 14.47L342.18 14.57L339.35 6.34ZM355.31 6.33L354.13 6.16L354.17 5.89L357.29 5.89L357.25 6.16L356.05 6.32L356.05 13.95L357.37 14.08L357.31 14.40L354.20 14.40L354.23 14.11L355.31 13.90L355.31 6.33ZM365.11 10.25L365.11 10.25L365.11 10.25Q365.11 9.73 365.21 9.21L365.21 9.21L365.21 9.21Q365.32 8.68 365.52 8.17L365.52 8.17L365.52 8.17Q365.72 7.66 366.05 7.22L366.05 7.22L366.05 7.22Q366.38 6.77 366.79 6.44L366.79 6.44L366.79 6.44Q367.21 6.10 367.76 5.90L367.76 5.90L367.76 5.90Q368.32 5.71 368.96 5.71L368.96 5.71L368.96 5.71Q370.37 5.71 371.28 6.39L371.28 6.39L371.07 8.70L370.75 8.64L370.54 6.87L370.54 6.87Q369.95 6.09 368.63 6.09L368.63 6.09L368.63 6.09Q367.49 6.09 366.66 7.19L366.66 7.19L366.66 7.19Q365.83 8.30 365.83 10.00L365.83 10.00L365.83 10.00Q365.83 11.92 366.64 12.97L366.64 12.97L366.64 12.97Q367.44 14.03 368.92 14.03L368.92 14.03L368.92 14.03Q369.65 14.03 370.34 13.65L370.34 13.65L370.34 13.65Q371.03 13.28 371.50 12.74L371.50 12.74L371.66 12.99L371.66 12.99Q371.49 13.25 371.20 13.51L371.20 13.51L371.20 13.51Q370.91 13.77 370.52 14.02L370.52 14.02L370.52 14.02Q370.14 14.27 369.63 14.42L369.63 14.42L369.63 14.42Q369.13 14.57 368.60 14.57L368.60 14.57L368.60 14.57Q367.03 14.57 366.07 13.40L366.07 13.40L366.07 13.40Q365.11 12.22 365.11 10.25ZM380.56 6.36L379.33 6.18L379.38 5.89L385.57 5.89L385.36 8.07L385.05 8.03L384.92 6.24L381.27 6.24L381.27 9.89L383.56 9.89L383.81 8.94L384.18 8.89L383.95 11.55L383.61 11.61L383.50 10.26L381.27 10.26L381.27 14.03L385.11 14.03L385.62 12.19L385.90 12.26L385.69 14.40L379.35 14.40L379.39 14.11L380.56 13.90L380.56 6.36ZM393.61 13.60L393.61 13.60L393.82 11.66L394.15 11.71L394.34 13.21L394.34 13.21Q394.56 13.64 395.09 13.89L395.09 13.89L395.09 13.89Q395.62 14.14 396.22 14.14L396.22 14.14L396.22 14.14Q396.91 14.14 397.39 13.74L397.39 13.74L397.39 13.74Q397.87 13.33 397.87 12.61L397.87 12.61L397.87 12.61Q397.87 12.20 397.65 11.83L397.65 11.83L397.65 11.83Q397.43 11.46 397.09 11.18L397.09 11.18L397.09 11.18Q396.74 10.90 396.32 10.63L396.32 10.63L396.32 10.63Q395.90 10.36 395.49 10.07L395.49 10.07L395.49 10.07Q395.07 9.79 394.72 9.48L394.72 9.48L394.72 9.48Q394.38 9.17 394.16 8.75L394.16 8.75L394.16 8.75Q393.95 8.33 393.95 7.84L393.95 7.84L393.95 7.84Q393.95 6.88 394.64 6.29L394.64 6.29L394.64 6.29Q395.34 5.71 396.22 5.71L396.22 5.71L396.22 5.71Q396.81 5.71 397.35 5.90L397.35 5.90L397.35 5.90Q397.89 6.09 398.21 6.46L398.21 6.46L397.99 8.58L397.67 8.53L397.49 6.87L397.49 6.87Q397.30 6.54 396.89 6.32L396.89 6.32L396.89 6.32Q396.47 6.10 396.04 6.10L396.04 6.10L396.04 6.10Q395.45 6.10 395.03 6.48L395.03 6.48L395.03 6.48Q394.62 6.87 394.62 7.52L394.62 7.52L394.62 7.52Q394.62 7.96 394.84 8.35L394.84 8.35L394.84 8.35Q395.06 8.74 395.41 9.03L395.41 9.03L395.41 9.03Q395.77 9.32 396.19 9.61L396.19 9.61L396.19 9.61Q396.61 9.89 397.04 10.17L397.04 10.17L397.04 10.17Q397.47 10.45 397.82 10.75L397.82 10.75L397.82 10.75Q398.17 11.05 398.40 11.45L398.40 11.45L398.40 11.45Q398.62 11.85 398.62 12.29L398.62 12.29L398.62 12.29Q398.62 13.28 397.87 13.93L397.87 13.93L397.87 13.93Q397.11 14.57 395.87 14.57L395.87 14.57L395.87 14.57Q395.16 14.57 394.56 14.30L394.56 14.30L394.56 14.30Q393.96 14.03 393.61 13.60Z"></path></g></svg>