<svg data-v-423bf9ae="" xmlns="http://www.w3.org/2000/svg" viewBox="0 0 60.00099660328355 60" class="icon"><!----><!----><!----><!----><g data-v-423bf9ae="" id="32b9174c-c9ee-4f4a-a430-4bd7f484688e" transform="matrix(1.2500170868984022,0,0,1.2500170868984022,0.00009001085205895265,-0.0008202009276629951)" stroke="none" fill="black"><path d="M13.886 48l-.047-.001A14.48 14.48 0 0 1 .001 34.16a1.001 1.001 0 0 1 .292-.754L33.406.293c.198-.199.475-.299.754-.292a14.479 14.479 0 0 1 13.839 13.838c.013.281-.093.555-.292.754L14.593 47.707a.997.997 0 0 1-.707.293zM2.027 34.501a12.484 12.484 0 0 0 11.471 11.473l32.476-32.476A12.481 12.481 0 0 0 34.501 2.027L2.027 34.501z"></path><path d="M22.614 33.035a2.647 2.647 0 0 1-1.877-.772l-4.998-4.999a2.66 2.66 0 0 1 0-3.755l7.767-7.769c1.006-1.002 2.754-1 3.756 0l4.994 4.998c.5.499.776 1.166.776 1.876 0 .711-.275 1.378-.776 1.879l-7.764 7.768a2.645 2.645 0 0 1-1.878.774zm2.771-16.071a.659.659 0 0 0-.467.191l-7.764 7.767a.658.658 0 0 0 0 .928l4.995 4.996a.683.683 0 0 0 .929-.001l7.764-7.768a.65.65 0 0 0 .19-.464.645.645 0 0 0-.189-.461l-4.995-4.998a.651.651 0 0 0-.463-.19z"></path><circle cx="36.15" cy="4.589" r=".525"></circle><circle cx="33.619" cy="7.12" r=".525"></circle><circle cx="31.091" cy="9.651" r=".524"></circle><circle cx="28.559" cy="12.181" r=".524"></circle><circle cx="43.411" cy="11.849" r=".524"></circle><circle cx="40.879" cy="14.379" r=".525"></circle><circle cx="38.35" cy="16.91" r=".525"></circle><circle cx="35.818" cy="19.44" r=".524"></circle><path d="M39.094 9.646a.518.518 0 0 1-.738 0 .52.52 0 0 1 0-.741.521.521 0 0 1 .738 0 .52.52 0 0 1 0 .741z"></path><circle cx="36.195" cy="11.806" r=".524"></circle><circle cx="33.664" cy="14.336" r=".525"></circle><g><circle cx="12.391" cy="28.35" r=".524"></circle><circle cx="9.859" cy="30.88" r=".524"></circle><path d="M7.699 33.781a.52.52 0 0 1-.739 0 .519.519 0 0 1 0-.74.517.517 0 0 1 .739 0 .519.519 0 0 1 0 .74z"></path><circle cx="4.798" cy="35.942" r=".525"></circle></g><g><circle cx="19.65" cy="35.609" r=".524"></circle><circle cx="17.12" cy="38.14" r=".524"></circle><circle cx="14.591" cy="40.67" r=".525"></circle><circle cx="12.058" cy="43.2" r=".523"></circle></g><path d="M15.333 33.406a.517.517 0 0 1-.739 0 .519.519 0 0 1 0-.74.52.52 0 0 1 .739 0 .519.519 0 0 1 0 .74z"></path><circle cx="12.434" cy="35.566" r=".525"></circle><path d="M10.275 38.469a.526.526 0 1 1-.743-.744.533.533 0 0 1 .743 0 .529.529 0 0 1 0 .744z"></path></g><!----></svg>